<?xml version="1.0" encoding="UTF-8"?>
<svg version="1.1" xmlns="http://www.w3.org/2000/svg" width="225" height="225">
<path d="M0 0 C74.25 0 148.5 0 225 0 C225 74.25 225 148.5 225 225 C150.75 225 76.5 225 0 225 C0 150.75 0 76.5 0 0 Z " fill="#FEFEFE" transform="translate(0,0)"/>
<path d="M0 0 C4.81970922 -0.07473903 9.63907335 -0.12887722 14.45922852 -0.16479492 C16.09535609 -0.17978456 17.73144415 -0.20018332 19.36743164 -0.22631836 C39.69140726 -0.5426207 39.69140726 -0.5426207 46.8125 5.3125 C51.74615169 11.3738435 54.16506961 15.45470939 54.0625 23.25 C54.05347656 24.14203125 54.04445313 25.0340625 54.03515625 25.953125 C54.02355469 26.62859375 54.01195313 27.3040625 54 28 C54.66 28 55.32 28 56 28 C56.51342659 20.51538122 56.8934274 14.72133832 52.19140625 8.5859375 C51 7 51 7 50 4 C50.4375 1.8125 50.4375 1.8125 51 0 C53.24940295 -0.08119503 55.49964871 -0.13927819 57.75 -0.1875 C59.00296875 -0.22230469 60.2559375 -0.25710937 61.546875 -0.29296875 C65.18358794 0.0155759 66.54642884 0.34990494 69 3 C72.12733699 11.24028476 69.33146747 21.64266403 68 30 C68.99 29.95359375 69.98 29.9071875 71 29.859375 C80.31030958 29.55170334 86.47354221 30.19366049 93.75 36.3125 C99.03191917 42.621459 100.69247123 46.67993378 100.3828125 54.9375 C99.3782708 62.97383359 95.90997681 69.50064193 90 75 C84.72465697 78.98342229 80.09417651 81.28241757 73.4375 81.375 C72.50808594 81.40335937 71.57867187 81.43171875 70.62109375 81.4609375 C68 81 68 81 65.67578125 79.4609375 C63.38913912 76.10293157 63.55803232 73.15580401 63.75 69.25 C63.76804687 68.55261719 63.78609375 67.85523438 63.8046875 67.13671875 C63.85161446 65.42388461 63.92335395 63.71176176 64 62 C63.25458267 65.36640082 62.81464828 68.55209167 62.75 72 C62.72421875 72.825 62.6984375 73.65 62.671875 74.5 C63.07477254 77.56969557 64.27698986 79.46082716 66 82 C62.33340185 82.05864392 58.66692636 82.09381108 55 82.125 C53.97003906 82.14175781 52.94007812 82.15851563 51.87890625 82.17578125 C47.32109352 82.2048119 43.14690759 82.20960923 38.75 80.9296875 C34.33472162 79.59679195 34.33472162 79.59679195 27 81 C26.67 75.39 26.34 69.78 26 64 C25.34 64 24.68 64 24 64 C23.505 65.485 23.505 65.485 23 67 C24.485 67.495 24.485 67.495 26 68 C26.46201615 75.70026924 26.38811727 81.50133497 22 88 C21.401875 88.886875 20.80375 89.77375 20.1875 90.6875 C15.10038416 96.06530818 8.67180532 100.6448806 1.08154297 101.12011719 C-3.61677464 101.25041834 -8.30337532 101.15389426 -13 101 C-12.75270995 97.37942004 -12.25387196 96.22694014 -9.49609375 93.76171875 C-7.98208984 92.73498047 -7.98208984 92.73498047 -6.4375 91.6875 C-5.42558594 90.99011719 -4.41367187 90.29273438 -3.37109375 89.57421875 C-2.58863281 89.05472656 -1.80617187 88.53523438 -1 88 C-2.44632813 88.74056641 -2.44632813 88.74056641 -3.921875 89.49609375 C-5.19780852 90.14344237 -6.47385621 90.79056599 -7.75 91.4375 C-8.70132813 91.92573242 -8.70132813 91.92573242 -9.671875 92.42382812 C-12.73359908 93.97063665 -15.60615621 95.3915078 -19 96 C-16.19496532 89.04839231 -12.51125654 84.83720459 -6 81 C-5.01 81 -4.02 81 -3 81 C-3 80.34 -3 79.68 -3 79 C-3.55429687 79.28875 -4.10859375 79.5775 -4.6796875 79.875 C-5.40414062 80.24625 -6.12859375 80.6175 -6.875 81 C-7.59429687 81.37125 -8.31359375 81.7425 -9.0546875 82.125 C-11 83 -11 83 -13 83 C-13.2475 83.556875 -13.495 84.11375 -13.75 84.6875 C-15.23870529 87.44160479 -16.88409972 89.69174514 -19 92 C-19.99 92 -20.98 92 -22 92 C-22 91.01 -22 90.02 -22 89 C-23.485 88.505 -23.485 88.505 -25 88 C-25 87.34 -25 86.68 -25 86 C-25.66 86 -26.32 86 -27 86 C-27.33 84.68 -27.66 83.36 -28 82 C-28.99 82 -29.98 82 -31 82 C-30.41647777 78.34271281 -28.93112822 76.49755827 -26.4375 73.8125 C-24.09991971 71.7063081 -24.09991971 71.7063081 -23 69 C-26.96 73.455 -26.96 73.455 -31 78 C-31.99 77.67 -32.98 77.34 -34 77 C-34 76.34 -34 75.68 -34 75 C-34.66 75 -35.32 75 -36 75 C-35.64008282 69.95193086 -32.95601959 67.47760134 -29.4375 64.1875 C-28.91736328 63.68541016 -28.39722656 63.18332031 -27.86132812 62.66601562 C-26.5831143 61.43470873 -25.29272853 60.2160593 -24 59 C-29.54603965 62.7569946 -33.38163185 66.34629976 -37 72 C-44 65 -44 65 -44.4375 61.6875 C-43.66631788 55.18753642 -37.63136389 51.72208207 -32.8125 47.6875 C-32.24877686 47.21401123 -31.68505371 46.74052246 -31.10424805 46.25268555 C-29.40630114 44.83089773 -27.70410078 43.41440365 -26 42 C-25.01 41.17757812 -24.02 40.35515625 -23 39.5078125 C-16.25733986 34 -16.25733986 34 -14 34 C-13.34 33.01 -12.68 32.02 -12 31 C-11.34 31 -10.68 31 -10 31 C-9.505 29.515 -9.505 29.515 -9 28 C-8.34 28 -7.68 28 -7 28 C-6.34 30.31 -5.68 32.62 -5 35 C-4.53813138 32.16720581 -4.08051324 29.33381794 -3.625 26.5 C-3.49867187 25.72785156 -3.37234375 24.95570312 -3.2421875 24.16015625 C-1.95774096 16.13236539 -0.98035494 8.06936572 0 0 Z " fill="#F7FCFC" transform="translate(61,64)"/>
<path d="M0 0 C0.66 0 1.32 0 2 0 C3.7282587 4.4440938 5.22067967 8.43182713 5 13.25 C5 17.27767128 5.4767153 18.91598537 8 22 C11.17509982 23.05836661 13.64282383 23.20243789 16.98046875 23.31640625 C18.14384766 23.35830078 19.30722656 23.40019531 20.50585938 23.44335938 C21.72080078 23.48267578 22.93574219 23.52199219 24.1875 23.5625 C25.41404297 23.60568359 26.64058594 23.64886719 27.90429688 23.69335938 C30.93608381 23.7995309 33.96795315 23.90157952 37 24 C38.1640625 29.703125 38.1640625 29.703125 36.6875 32.375 C32.60747672 34.84199082 28.65171024 34.31958315 24 34 C23.67 36.97 23.34 39.94 23 43 C23.86625 42.505 24.7325 42.01 25.625 41.5 C29.14678238 39.93476339 31.21783377 39.87286836 35 40 C35.46201615 47.70026924 35.38811727 53.50133497 31 60 C30.401875 60.886875 29.80375 61.77375 29.1875 62.6875 C24.10038416 68.06530818 17.67180532 72.6448806 10.08154297 73.12011719 C5.38322536 73.25041834 0.69662468 73.15389426 -4 73 C-3.75270995 69.37942004 -3.25387196 68.22694014 -0.49609375 65.76171875 C1.01791016 64.73498047 1.01791016 64.73498047 2.5625 63.6875 C3.57441406 62.99011719 4.58632813 62.29273438 5.62890625 61.57421875 C6.41136719 61.05472656 7.19382813 60.53523438 8 60 C7.03578125 60.49371094 6.0715625 60.98742187 5.078125 61.49609375 C3.80219148 62.14344237 2.52614379 62.79056599 1.25 63.4375 C0.29867187 63.92573242 0.29867187 63.92573242 -0.671875 64.42382812 C-3.73359908 65.97063665 -6.60615621 67.3915078 -10 68 C-7.19496532 61.04839231 -3.51125654 56.83720459 3 53 C3.99 53 4.98 53 6 53 C6 52.34 6 51.68 6 51 C5.44570313 51.28875 4.89140625 51.5775 4.3203125 51.875 C3.59585938 52.24625 2.87140625 52.6175 2.125 53 C1.40570313 53.37125 0.68640625 53.7425 -0.0546875 54.125 C-2 55 -2 55 -4 55 C-4.2475 55.556875 -4.495 56.11375 -4.75 56.6875 C-6.23870529 59.44160479 -7.88409972 61.69174514 -10 64 C-10.99 64 -11.98 64 -13 64 C-13 63.01 -13 62.02 -13 61 C-14.485 60.505 -14.485 60.505 -16 60 C-16 59.34 -16 58.68 -16 58 C-16.66 58 -17.32 58 -18 58 C-18.33 56.68 -18.66 55.36 -19 54 C-19.99 54 -20.98 54 -22 54 C-21.41647777 50.34271281 -19.93112822 48.49755827 -17.4375 45.8125 C-15.09991971 43.7063081 -15.09991971 43.7063081 -14 41 C-17.96 45.455 -17.96 45.455 -22 50 C-22.99 49.67 -23.98 49.34 -25 49 C-25 48.34 -25 47.68 -25 47 C-25.66 47 -26.32 47 -27 47 C-26.64008282 41.95193086 -23.95601959 39.47760134 -20.4375 36.1875 C-19.91736328 35.68541016 -19.39722656 35.18332031 -18.86132812 34.66601562 C-17.5831143 33.43470873 -16.29272853 32.2160593 -15 31 C-20.54603965 34.7569946 -24.38163185 38.34629976 -28 44 C-35 37 -35 37 -35.4375 33.6875 C-34.66631788 27.18753642 -28.63136389 23.72208207 -23.8125 19.6875 C-23.24877686 19.21401123 -22.68505371 18.74052246 -22.10424805 18.25268555 C-20.40630114 16.83089773 -18.70410078 15.41440365 -17 14 C-16.01 13.17757812 -15.02 12.35515625 -14 11.5078125 C-7.25733986 6 -7.25733986 6 -5 6 C-4.34 5.01 -3.68 4.02 -3 3 C-2.34 3 -1.68 3 -1 3 C-0.67 2.01 -0.34 1.02 0 0 Z " fill="#F2C8A2" transform="translate(52,92)"/>
<path d="M0 0 C1.96549805 0.01643555 1.96549805 0.01643555 3.97070312 0.03320312 C11.74321076 0.19537758 17.10103332 0.72052856 23.1875 5.9375 C28.60361165 12.20878717 30.25637043 16.33012199 29.9453125 24.625 C28.9407708 32.66133359 25.47247681 39.18814193 19.5625 44.6875 C12.48451233 50.03210293 6.35609103 51.70214512 -2.4375 50.6875 C-5.125 49.375 -5.125 49.375 -6.4375 46.6875 C-6.99332798 41.21343654 -6.6345217 36.04976795 -5.4375 30.6875 C-4.28121094 30.59662109 -4.28121094 30.59662109 -3.1015625 30.50390625 C-1.59722656 30.37822266 -1.59722656 30.37822266 -0.0625 30.25 C0.93523437 30.16878906 1.93296875 30.08757812 2.9609375 30.00390625 C5.54177613 29.83784374 5.54177613 29.83784374 7.5625 28.6875 C7.5625 26.3775 7.5625 24.0675 7.5625 21.6875 C-0.6875 21.3575 -8.9375 21.0275 -17.4375 20.6875 C-20.43302603 10.20315889 -20.43302603 10.20315889 -17.8125 4.5703125 C-13.76301151 -1.74079338 -6.71623207 -0.27339248 0 0 Z " fill="#32507D" transform="translate(131.4375,94.3125)"/>
<path d="M0 0 C0.69061523 0.64960693 1.38123047 1.29921387 2.09277344 1.96850586 C5.55728099 4.38941343 7.33263071 4.49705572 11.515625 4.50390625 C13.39314453 4.53194336 13.39314453 4.53194336 15.30859375 4.56054688 C16.60925781 4.56119141 17.90992188 4.56183594 19.25 4.5625 C38.90316724 4.63149306 38.90316724 4.63149306 45.8125 10.3125 C51.67812138 17.51883484 53.90396063 22.77698137 53 32 C50.98642129 40.41342443 46.05755917 47.65533966 38.80859375 52.44921875 C35.7756307 54.04110543 33.45026573 55 30 55 C29.67 49.39 29.34 43.78 29 38 C28.34 38 27.68 38 27 38 C26.79375 38.598125 26.5875 39.19625 26.375 39.8125 C24.47304173 42.8383427 22.24699596 43.64708502 19 45 C18.34 45 17.68 45 17 45 C17.33 42.03 17.66 39.06 18 36 C19.03060547 35.94392578 19.03060547 35.94392578 20.08203125 35.88671875 C20.98308594 35.82097656 21.88414063 35.75523438 22.8125 35.6875 C23.70582031 35.62949219 24.59914063 35.57148437 25.51953125 35.51171875 C27.99807311 35.15466761 27.99807311 35.15466761 29.82421875 33.83203125 C31.49063408 31.23552364 31.07702622 29.02449469 31 26 C30.23856689 26.01571045 29.47713379 26.0314209 28.69262695 26.04760742 C25.2326606 26.11008453 21.7728131 26.14903172 18.3125 26.1875 C17.11431641 26.21263672 15.91613281 26.23777344 14.68164062 26.26367188 C13.52470703 26.27333984 12.36777344 26.28300781 11.17578125 26.29296875 C10.11270752 26.3086792 9.04963379 26.32438965 7.9543457 26.34057617 C4.57865179 25.95142709 2.73431122 24.97751464 0 23 C-2.76000865 19.43869852 -2.04030781 15.81870763 -1.6875 11.5 C-1.58824219 10.1903125 -1.48898438 8.880625 -1.38671875 7.53125 C-1.09773863 4.892482 -0.75527272 2.53048639 0 0 Z " fill="#33527F" transform="translate(58,90)"/>
<path d="M0 0 C0.80566406 0.00322266 1.61132812 0.00644531 2.44140625 0.00976562 C3.70404297 0.02233398 3.70404297 0.02233398 4.9921875 0.03515625 C6.26642578 0.04192383 6.26642578 0.04192383 7.56640625 0.04882812 C9.66669659 0.06062751 11.7669508 0.07856319 13.8671875 0.09765625 C13.46247726 0.56072174 13.05776703 1.02378723 12.64079285 1.50088501 C7.03603441 8.73419669 6.35079963 16.38190711 5.41796875 25.18359375 C5.23442978 26.73325687 5.0483658 28.2826228 4.85990906 29.83169556 C4.37219418 33.88232539 3.91108214 37.93547764 3.45800781 41.9901123 C2.72815894 48.50017219 1.96712628 55.00642169 1.18782616 61.51073074 C0.92156569 63.77796542 0.67267502 66.04663957 0.42536926 68.31600952 C0.26376898 69.70211866 0.10158466 71.08815987 -0.0612793 72.47412109 C-0.19640427 73.6838559 -0.33152924 74.8935907 -0.4707489 76.13998413 C-1.15309722 79.18827525 -1.61920915 80.31069254 -4.1328125 82.09765625 C-6.12573242 82.43823242 -6.12573242 82.43823242 -8.36328125 82.390625 C-9.16572266 82.38095703 -9.96816406 82.37128906 -10.79492188 82.36132812 C-11.62830078 82.33619141 -12.46167969 82.31105469 -13.3203125 82.28515625 C-14.5877832 82.26485352 -14.5877832 82.26485352 -15.88085938 82.24414062 C-17.96511634 82.20881424 -20.04904527 82.15500764 -22.1328125 82.09765625 C-22.1328125 81.10765625 -22.1328125 80.11765625 -22.1328125 79.09765625 C-20.5234375 77.66796875 -20.5234375 77.66796875 -18.3828125 76.22265625 C-12.38546628 71.92826019 -8.5237315 66.90264915 -6.4453125 59.72265625 C-5.46918835 51.52321336 -6.35844736 46.02932712 -11.1328125 39.09765625 C-12.02613281 38.54980469 -12.91945312 38.00195312 -13.83984375 37.4375 C-16.1328125 35.09765625 -16.1328125 35.09765625 -16.39526367 32.96240234 C-16.2813799 30.24647076 -15.99230504 27.60447794 -15.6328125 24.91015625 C-15.54 24.00201172 -15.4471875 23.09386719 -15.3515625 22.15820312 C-13.68249421 7.5851506 -13.68249421 7.5851506 -8.5703125 2.59765625 C-5.36744848 0.62666301 -3.72039504 -0.02619997 0 0 Z " fill="#314F7C" transform="translate(170.1328125,62.90234375)"/>
<path d="M0 0 C22.55245819 -0.65686771 22.55245819 -0.65686771 29.8125 5.3125 C35.00643669 11.69362221 37.37032253 16.3138358 37.2890625 24.48046875 C36.77718814 28.94207637 35.20525444 33.09839599 33 37 C32.01 37.66 31.02 38.32 30 39 C29.5875 38.60167969 29.175 38.20335937 28.75 37.79296875 C24.39728536 33.7997417 20.62970004 31.77780001 15 30 C15 27.36 15 24.72 15 22 C11.04 21.67 7.08 21.34 3 21 C3.03480469 19.90300781 3.06960937 18.80601563 3.10546875 17.67578125 C3.13361865 16.22136955 3.16091752 14.7669412 3.1875 13.3125 C3.21263672 12.59126953 3.23777344 11.87003906 3.26367188 11.12695312 C3.32672457 6.52410662 2.77816458 3.69692767 0 0 Z " fill="#33507C" transform="translate(78,64)"/>
<path d="M0 0 C3.74497454 0.21399855 4.92156923 0.92156923 7.625 3.625 C11.87282473 9.25303277 13.97020359 14.920136 13 22 C10.76528766 31.52181781 5.87715675 38.23705849 -2 44 C-2.66 44 -3.32 44 -4 44 C-4 44.99 -4 45.98 -4 47 C1.28 47 6.56 47 12 47 C12 47.33 12 47.66 12 48 C7.38 48.33 2.76 48.66 -2 49 C-1.54862025 53.88774629 -1.54862025 53.88774629 1.0625 55.8125 C1.701875 56.204375 2.34125 56.59625 3 57 C3 56.34 3 55.68 3 55 C2.34 55 1.68 55 1 55 C0.67 53.68 0.34 52.36 0 51 C2.31 51.66 4.62 52.32 7 53 C7 54.98 7 56.96 7 59 C7.2475 58.030625 7.495 57.06125 7.75 56.0625 C8.1625 55.051875 8.575 54.04125 9 53 C11.125 52.125 11.125 52.125 13 52 C13.33 52.66 13.66 53.32 14 54 C14.99 54.33 15.98 54.66 17 55 C17.495 54.01 17.495 54.01 18 53 C19.65 53.33 21.3 53.66 23 54 C23 54.66 23 55.32 23 56 C23.99 56.33 24.98 56.66 26 57 C25.34 58.32 24.68 59.64 24 61 C20.31733897 60.40049704 16.65456815 59.75241109 13 59 C13 59.66 13 60.32 13 61 C12.01 61.33 11.02 61.66 10 62 C10 63.98 10 65.96 10 68 C6.04 68.99 6.04 68.99 2 70 C2 68.02 2 66.04 2 64 C1.34 64 0.68 64 0 64 C-0.33 63.34 -0.66 62.68 -1 62 C-2.97888961 61.27306096 -4.97954558 60.60183749 -7 60 C-7 58.02 -7 56.04 -7 54 C-7.66 54 -8.32 54 -9 54 C-8.67 56.97 -8.34 59.94 -8 63 C-7.01 63 -6.02 63 -5 63 C-5 64.65 -5 66.3 -5 68 C-6.98 68.495 -6.98 68.495 -9 69 C-9 67.68 -9 66.36 -9 65 C-9.66 65 -10.32 65 -11 65 C-11.66 66.32 -12.32 67.64 -13 69 C-13.94875 68.67 -14.8975 68.34 -15.875 68 C-18.77062452 66.89840809 -18.77062452 66.89840809 -21 67 C-21 67.66 -21 68.32 -21 69 C-21.66 69 -22.32 69 -23 69 C-23.1875 66.125 -23.1875 66.125 -23 63 C-22.01 62.34 -21.02 61.68 -20 61 C-20.66 61 -21.32 61 -22 61 C-23.32 61 -24.64 61 -26 61 C-26 58.69 -26 56.38 -26 54 C-24.68 54 -23.36 54 -22 54 C-21.34 52.35 -20.68 50.7 -20 49 C-20.78375 49.20625 -21.5675 49.4125 -22.375 49.625 C-23.24125 49.74875 -24.1075 49.8725 -25 50 C-25.66 49.34 -26.32 48.68 -27 48 C-27 47.34 -27 46.68 -27 46 C-27.66 45.01 -28.32 44.02 -29 43 C-29.54318537 37.65100508 -29.10559488 32.25157567 -28 27 C-27.34 27.33 -26.68 27.66 -26 28 C-26.03480469 29.04800781 -26.06960937 30.09601563 -26.10546875 31.17578125 C-26.13360937 32.55467147 -26.16090924 33.93357902 -26.1875 35.3125 C-26.21263672 36.00279297 -26.23777344 36.69308594 -26.26367188 37.40429688 C-26.30544034 40.28632122 -26.33377444 42.45102889 -24.8125 44.953125 C-20.91371674 47.20500843 -16.32599112 46.53852967 -12 46 C-9.04729009 45.03230516 -6.59128275 43.69978639 -4 42 C-3.13375 41.46375 -2.2675 40.9275 -1.375 40.375 C4.90040947 34.09959053 8.07955839 27.02234306 8.375 18.25 C8.36187639 12.8824448 7.31906397 9.77010089 4.09375 5.5234375 C3 4 3 4 3 2 C2.01 1.67 1.02 1.34 0 1 C0 0.67 0 0.34 0 0 Z " fill="#E1EAF0" transform="translate(152,98)"/>
<path d="M0 0 C0.66 0 1.32 0 2 0 C3.18681726 3.56045177 3.09689832 6.43808337 3.0625 10.1875 C3.05347656 11.45980469 3.04445313 12.73210937 3.03515625 14.04296875 C3.02355469 15.01878906 3.01195313 15.99460938 3 17 C3.65226562 16.83242187 4.30453125 16.66484375 4.9765625 16.4921875 C5.85054687 16.28851563 6.72453125 16.08484375 7.625 15.875 C8.91277344 15.56175781 8.91277344 15.56175781 10.2265625 15.2421875 C13.63855338 14.944239 15.753022 15.917674 19 17 C22.28524805 17.38193942 25.57100522 17.5055785 28.875 17.625 C29.75414062 17.66367188 30.63328125 17.70234375 31.5390625 17.7421875 C33.69238793 17.83581034 35.84616414 17.91896459 38 18 C37.01 19.98 36.02 21.96 35 24 C36.32 24.33 37.64 24.66 39 25 C39 29.29 39 33.58 39 38 C35.33418546 38.73316291 32.63300168 39.10380005 29 39 C28.34 37.68 27.68 36.36 27 35 C26.34 35 25.68 35 25 35 C24.67 36.32 24.34 37.64 24 39 C24 37.68 24 36.36 24 35 C22.68 34.67 21.36 34.34 20 34 C20 35.65 20 37.3 20 39 C18.33333333 39 16.66666667 39 15 39 C14.67 36.69 14.34 34.38 14 32 C13.34 32 12.68 32 12 32 C12 34.31 12 36.62 12 39 C4.375 40.25 4.375 40.25 1 38 C0.3125 34.875 0.3125 34.875 0 32 C-0.66 32 -1.32 32 -2 32 C-2.33 30.68 -2.66 29.36 -3 28 C-3.66 28 -4.32 28 -5 28 C-4.04659342 26.05043319 -3.08493802 24.14102917 -1.96484375 22.28125 C1.42659423 16.40103815 1.77676841 10.6969477 2 4 C0.68 3.67 -0.64 3.34 -2 3 C-1.34 2.01 -0.68 1.02 0 0 Z " fill="#F8F9FA" transform="translate(85,128)"/>
<path d="M0 0 C1.32 0 2.64 0 4 0 C4.46201615 7.70026924 4.38811727 13.50133497 0 20 C-0.598125 20.886875 -1.19625 21.77375 -1.8125 22.6875 C-6.89961584 28.06530818 -13.32819468 32.6448806 -20.91845703 33.12011719 C-25.61677464 33.25041834 -30.30337532 33.15389426 -35 33 C-34.75270995 29.37942004 -34.25387196 28.22694014 -31.49609375 25.76171875 C-30.48675781 25.07722656 -29.47742188 24.39273438 -28.4375 23.6875 C-27.42558594 22.99011719 -26.41367187 22.29273438 -25.37109375 21.57421875 C-24.58863281 21.05472656 -23.80617188 20.53523438 -23 20 C-23.96421875 20.49371094 -24.9284375 20.98742187 -25.921875 21.49609375 C-27.19780852 22.14344237 -28.47385621 22.79056599 -29.75 23.4375 C-30.70132813 23.92573242 -30.70132813 23.92573242 -31.671875 24.42382812 C-34.73359908 25.97063665 -37.60615621 27.3915078 -41 28 C-38.19496532 21.04839231 -34.51125654 16.83720459 -28 13 C-27.01 13 -26.02 13 -25 13 C-25 12.34 -25 11.68 -25 11 C-24.41734375 10.76925781 -23.8346875 10.53851563 -23.234375 10.30078125 C-17.30407267 7.94171444 -11.42370902 5.48848943 -5.56640625 2.953125 C-3 2 -3 2 0 2 C0 1.34 0 0.68 0 0 Z " fill="#ABCE49" transform="translate(83,132)"/>
<path d="M0 0 C2.06183633 -0.08150744 4.12461349 -0.1394194 6.1875 -0.1875 C7.33605469 -0.22230469 8.48460938 -0.25710937 9.66796875 -0.29296875 C13.33289234 0.02926955 15.09664715 0.78767607 18 3 C20.41760022 6.62640033 20.10740976 7.81786999 19.6875 12.0625 C19.57921875 13.21234375 19.4709375 14.3621875 19.359375 15.546875 C19.24078125 16.68640625 19.1221875 17.8259375 19 19 C18.90203125 20.01578125 18.8040625 21.0315625 18.703125 22.078125 C18.47887056 24.38662659 18.24469798 26.69359139 18 29 C15.4149133 29.13526616 12.83691248 29.23417653 10.25 29.3125 C9.52039063 29.35439453 8.79078125 29.39628906 8.0390625 29.43945312 C4.33093782 29.52372869 2.39695111 29.31903335 -0.52734375 26.96875 C-2.39146055 23.21084875 -2.2663734 20.23497168 -1.8125 16.1875 C-1.75006104 15.47916016 -1.68762207 14.77082031 -1.62329102 14.04101562 C-1.43944956 12.02501898 -1.22069051 10.01229617 -1 8 C-0.84917969 6.60201172 -0.84917969 6.60201172 -0.6953125 5.17578125 C-0.49047959 3.44711566 -0.2512035 1.72253825 0 0 Z " fill="#33527E" transform="translate(61,64)"/>
<path d="M0 0 C0.66 0.33 1.32 0.66 2 1 C2 1.66 2 2.32 2 3 C5.71429898 4.1161656 9.39161508 4.3124195 13.25 4.5625 C14.51328125 4.64628906 15.7765625 4.73007813 17.078125 4.81640625 C18.04234375 4.87699219 19.0065625 4.93757813 20 5 C19.88449154 7.02139807 19.75711059 9.04211906 19.625 11.0625 C19.55539063 12.18785156 19.48578125 13.31320313 19.4140625 14.47265625 C18.9596543 18.34369967 18.57473891 21.41450577 17 25 C14.56682808 26.81279857 11.95582451 27.82283514 9.125 28.875 C8.04412109 29.31585938 8.04412109 29.31585938 6.94140625 29.765625 C3.62596565 31.09668587 0.48161807 32.12959548 -3 33 C-3 29.7 -3 26.4 -3 23 C-2.34 23.66 -1.68 24.32 -1 25 C-0.34 24.67 0.32 24.34 1 24 C1 23.01 1 22.02 1 21 C0.01 21.33 -0.98 21.66 -2 22 C-2 19.69 -2 17.38 -2 15 C-0.35 14.34 1.3 13.68 3 13 C3 12.01 3 11.02 3 10 C2.01 10 1.02 10 0 10 C-0.33 10.99 -0.66 11.98 -1 13 C-1 11.68 -1 10.36 -1 9 C0.65 8.67 2.3 8.34 4 8 C4 7.01 4 6.02 4 5 C3.01 5 2.02 5 1 5 C0.67 5.99 0.34 6.98 0 8 C0 7.01 0 6.02 0 5 C-1.32 5.33 -2.64 5.66 -4 6 C-3.67 5.01 -3.34 4.02 -3 3 C-2.01 3 -1.02 3 0 3 C0 2.01 0 1.02 0 0 Z " fill="#57697A" transform="translate(55,112)"/>
<path d="M0 0 C3.63 0 7.26 0 11 0 C11.1254902 7.27843137 11.1254902 7.27843137 10.5 10.875 C10.05554255 13.65285904 9.832929 16.25535328 9.75 19.0625 C9.72421875 19.87847656 9.6984375 20.69445312 9.671875 21.53515625 C10.07765354 24.58332602 11.29082136 26.47671258 13 29 C9.20839703 29.05786668 5.41690689 29.09355054 1.625 29.125 C0.00464844 29.15013672 0.00464844 29.15013672 -1.6484375 29.17578125 C-2.6796875 29.18222656 -3.7109375 29.18867188 -4.7734375 29.1953125 C-6.20308838 29.21102295 -6.20308838 29.21102295 -7.66162109 29.22705078 C-10 29 -10 29 -12 27 C-11.625 24.375 -11.625 24.375 -11 22 C-10.34 22 -9.68 22 -9 22 C-9 21.34 -9 20.68 -9 20 C-8.34 20 -7.68 20 -7 20 C-2.15490672 10.42299966 -2.15490672 10.42299966 0 0 Z " fill="#32507E" transform="translate(114,117)"/>
<path d="M0 0 C0.67096451 4.8255225 0.93543549 9.19878692 0 14 C-3.15589536 17.57447834 -6.87571422 19.67333395 -11 22 C-15.34322887 25.10985759 -18.2535356 28.45777041 -21 33 C-28 26 -28 26 -28.4375 22.6875 C-27.87222125 17.92300771 -26.68943968 17.01178749 -23 14 C-22.28714844 13.38511719 -21.57429688 12.77023438 -20.83984375 12.13671875 C-14.12169367 6.54012962 -14.12169367 6.54012962 -9 7 C-8.6596875 6.1028125 -8.6596875 6.1028125 -8.3125 5.1875 C-6.43375091 2.05625152 -3.74574487 0 0 0 Z " fill="#F17537" transform="translate(45,103)"/>
<path d="M0 0 C2.24940295 -0.08119503 4.49964871 -0.13927819 6.75 -0.1875 C8.00296875 -0.22230469 9.2559375 -0.25710937 10.546875 -0.29296875 C14.18358794 0.0155759 15.54642884 0.34990494 18 3 C20.90870449 10.63342555 18.70447431 20.3360863 17 28 C16 29 16 29 13.71484375 29.09765625 C12.34005859 29.08025391 12.34005859 29.08025391 10.9375 29.0625 C10.01839844 29.05347656 9.09929687 29.04445313 8.15234375 29.03515625 C7.44207031 29.02355469 6.73179688 29.01195313 6 29 C5.98582031 28.0821875 5.97164063 27.164375 5.95703125 26.21875 C5.68921126 19.32781394 5.41207119 14.13036078 1.15625 8.55078125 C0 7 0 7 -1 4 C-0.5625 1.8125 -0.5625 1.8125 0 0 Z " fill="#324F7A" transform="translate(112,64)"/>
<path d="M0 0 C-0.33 1.32 -0.66 2.64 -1 4 C-0.34 4 0.32 4 1 4 C1.33 4.66 1.66 5.32 2 6 C3.65 5.67 5.3 5.34 7 5 C7.33 5.99 7.66 6.98 8 8 C7.505 8.804375 7.01 9.60875 6.5 10.4375 C4.73725329 12.84522721 4.73725329 12.84522721 5.3125 15.3125 C5.6528125 16.1478125 5.6528125 16.1478125 6 17 C6.66 16.67 7.32 16.34 8 16 C7.67 17.65 7.34 19.3 7 21 C6.01 21.33 5.02 21.66 4 22 C3.29605388 23.31403276 2.63654342 24.6520257 2 26 C0.0625 28.75 0.0625 28.75 -2 31 C-2.99 31 -3.98 31 -5 31 C-5 30.01 -5 29.02 -5 28 C-5.99 27.67 -6.98 27.34 -8 27 C-8 26.34 -8 25.68 -8 25 C-8.66 25 -9.32 25 -10 25 C-10.33 23.68 -10.66 22.36 -11 21 C-11.99 21 -12.98 21 -14 21 C-13.41647777 17.34271281 -11.93112822 15.49755827 -9.4375 12.8125 C-7.09991971 10.7063081 -7.09991971 10.7063081 -6 8 C-8.64 10.97 -11.28 13.94 -14 17 C-14.99 16.67 -15.98 16.34 -17 16 C-13.73122875 10.45730092 -7.00806826 0 0 0 Z " fill="#F0CFAC" transform="translate(44,125)"/>
<path d="M0 0 C6.93 0 13.86 0 21 0 C20.05125 1.2375 19.1025 2.475 18.125 3.75 C14.44419084 9.19308335 13.6324576 14.55547513 13 21 C8.18429799 21.41514672 5.8467728 21.43850734 1.5 19.1875 C-0.53800021 17.2599605 -0.96925477 16.19909773 -1.40234375 13.39453125 C-1.45917348 8.71555011 -0.92157673 4.60788367 0 0 Z " fill="#324F7A" transform="translate(141,63)"/>
<path d="M0 0 C0.66 0.33 1.32 0.66 2 1 C1.67 1.99 1.34 2.98 1 4 C1.495 3.505 1.99 3.01 2.5 2.5 C6.11630158 0.33021905 8.82231616 0.79111581 13 1 C13 1.99 13 2.98 13 4 C11.35 4.33 9.7 4.66 8 5 C9.32 5.33 10.64 5.66 12 6 C12 6.99 12 7.98 12 9 C10.02 9.99 10.02 9.99 8 11 C8 12.98 8 14.96 8 17 C8.99 16.67 9.98 16.34 11 16 C10.67 17.65 10.34 19.3 10 21 C9.01 21.33 8.02 21.66 7 22 C5.30117552 24.49759982 5.30117552 24.49759982 4 27 C3.34 26.67 2.68 26.34 2 26 C2.46800711 21.94393835 2.87953208 18.53411321 5 15 C4.01 15.33 3.02 15.66 2 16 C1.01 16 0.02 16 -1 16 C-1.33 15.34 -1.66 14.68 -2 14 C-2.66 13.67 -3.32 13.34 -4 13 C-3.34 11.68 -2.68 10.36 -2 9 C-7.45900699 12.2754042 -11.59982315 16.43094642 -16 21 C-16.99775534 22.00223963 -17.99689925 23.0031104 -19 24 C-19.66 23.67 -20.32 23.34 -21 23 C-20.60867218 18.09061466 -18.19320089 15.70945879 -14.75 12.5 C-14.03263672 11.80970703 -14.03263672 11.80970703 -13.30078125 11.10546875 C-11.8725292 9.73140512 -10.43629334 8.36565596 -9 7 C-8.10152344 6.08992188 -7.20304687 5.17984375 -6.27734375 4.2421875 C-4.21030251 2.20705599 -2.7277108 0.94058993 0 0 Z " fill="#EDCAA2" transform="translate(46,116)"/>
<path d="M0 0 C0.98484375 0.02707031 1.9696875 0.05414063 2.984375 0.08203125 C3.73203125 0.11683594 4.4796875 0.15164062 5.25 0.1875 C4.82834212 13.21672856 4.82834212 13.21672856 0.25 18.1875 C-3.03761382 20.29735327 -5.63890061 20.40443094 -9.5 20.3125 C-10.48484375 20.29445313 -11.4696875 20.27640625 -12.484375 20.2578125 C-13.23203125 20.23460938 -13.9796875 20.21140625 -14.75 20.1875 C-14.51254707 13.51507268 -14.33038857 8.4222298 -9.75 3.1875 C-6.50158293 0.18182178 -4.37981386 -0.15642192 0 0 Z " fill="#33507A" transform="translate(192.75,62.8125)"/>
<path d="M0 0 C0.66 0 1.32 0 2 0 C2 0.99 2 1.98 2 3 C2.7520874 2.99476318 3.5041748 2.98952637 4.27905273 2.98413086 C7.66519342 2.96342773 11.05132084 2.95036123 14.4375 2.9375 C15.62150391 2.92912109 16.80550781 2.92074219 18.02539062 2.91210938 C19.15009766 2.90888672 20.27480469 2.90566406 21.43359375 2.90234375 C22.47572021 2.89710693 23.51784668 2.89187012 24.59155273 2.88647461 C27 3 27 3 28 4 C28.25 7.4375 28.25 7.4375 28 11 C24.59568053 13.26954631 22.83475798 13.36549949 18.8125 13.625 C17.72582031 13.69976562 16.63914063 13.77453125 15.51953125 13.8515625 C14.27236328 13.92503906 14.27236328 13.92503906 13 14 C13 11.03 13 8.06 13 5 C9.37 5 5.74 5 2 5 C2.103125 5.94875 2.20625 6.8975 2.3125 7.875 C2.35140743 14.22987981 -1.58273398 19.87410098 -5 25 C-5.66 25 -6.32 25 -7 25 C-7 25.66 -7 26.32 -7 27 C-7.66 27.33 -8.32 27.66 -9 28 C-9 29.65 -9 31.3 -9 33 C-12.3 32.67 -15.6 32.34 -19 32 C-15 29 -15 29 -13.25390625 27.74609375 C-6.08623718 22.20066849 -3.18548684 15.24950316 -1.75 6.4375 C-1.62109375 5.42558594 -1.4921875 4.41367188 -1.359375 3.37109375 C-1 1 -1 1 0 0 Z " fill="#ECF7FA" transform="translate(112,112)"/>
<path d="M0 0 C2.31 0.66 4.62 1.32 7 2 C7 3.98 7 5.96 7 8 C7.37125 6.5459375 7.37125 6.5459375 7.75 5.0625 C8.1625 4.051875 8.575 3.04125 9 2 C11.125 1.125 11.125 1.125 13 1 C13.33 1.66 13.66 2.32 14 3 C14.99 3.33 15.98 3.66 17 4 C17.33 3.34 17.66 2.68 18 2 C20.475 2.495 20.475 2.495 23 3 C23 3.66 23 4.32 23 5 C23.99 5.33 24.98 5.66 26 6 C25.34 7.32 24.68 8.64 24 10 C20.31733897 9.40049704 16.65456815 8.75241109 13 8 C13 8.66 13 9.32 13 10 C12.01 10.33 11.02 10.66 10 11 C10 12.98 10 14.96 10 17 C7.36 17.66 4.72 18.32 2 19 C2 17.02 2 15.04 2 13 C1.34 13 0.68 13 0 13 C-0.33 12.34 -0.66 11.68 -1 11 C-2.97888961 10.27306096 -4.97954558 9.60183749 -7 9 C-7 7.02 -7 5.04 -7 3 C-1.58461538 2.63076923 -1.58461538 2.63076923 1.375 4.5 C1.91125 4.995 2.4475 5.49 3 6 C3 5.34 3 4.68 3 4 C2.34 4 1.68 4 1 4 C0.67 2.68 0.34 1.36 0 0 Z " fill="#DADADB" transform="translate(152,149)"/>
<path d="M0 0 C0.66 0 1.32 0 2 0 C2.474375 0.639375 2.94875 1.27875 3.4375 1.9375 C4.9091365 4.28372963 4.9091365 4.28372963 8 5 C9.9906444 5.14986411 11.98535391 5.24828038 13.98046875 5.31640625 C15.14384766 5.35830078 16.30722656 5.40019531 17.50585938 5.44335938 C18.72080078 5.48267578 19.93574219 5.52199219 21.1875 5.5625 C22.41404297 5.60568359 23.64058594 5.64886719 24.90429688 5.69335938 C27.93608381 5.7995309 30.96795315 5.90157952 34 6 C35.1640625 11.703125 35.1640625 11.703125 33.6875 14.375 C29.60747672 16.84199082 25.65171024 16.31958315 21 16 C20.67 18.97 20.34 21.94 20 25 C20.94875 24.505 21.8975 24.01 22.875 23.5 C26 22 26 22 28 22 C28 22.66 28 23.32 28 24 C24.96295026 25.32336947 21.91963952 26.63169786 18.875 27.9375 C17.59109375 28.49727539 17.59109375 28.49727539 16.28125 29.06835938 C11.85321782 30.9587885 7.83913723 32.50022025 3 33 C6.02355704 30.41840141 8.21439883 29.74292149 12.0625 29 C14.84613242 28.18736956 14.84613242 28.18736956 17 26 C19.208998 19.99244526 19.55958782 13.34267251 20 7 C19.03578125 7.02320312 18.0715625 7.04640625 17.078125 7.0703125 C15.81484375 7.08835937 14.5515625 7.10640625 13.25 7.125 C11.99703125 7.14820312 10.7440625 7.17140625 9.453125 7.1953125 C6.25376406 7.01435317 4.57640323 6.83320999 2 5 C0.75 2.375 0.75 2.375 0 0 Z " fill="#F1F8F9" transform="translate(55,110)"/>
<path d="M0 0 C0.33 0.66 0.66 1.32 1 2 C0.67 2.99 0.34 3.98 0 5 C-0.66 5 -1.32 5 -2 5 C-2 5.66 -2 6.32 -2 7 C-3.2065625 7.6496875 -3.2065625 7.6496875 -4.4375 8.3125 C-7.24282331 9.76787059 -7.24282331 9.76787059 -7.8125 12.6875 C-7.874375 13.450625 -7.93625 14.21375 -8 15 C-6.58208592 14.54554036 -5.16571954 14.08625056 -3.75 13.625 C-2.96109375 13.36976562 -2.1721875 13.11453125 -1.359375 12.8515625 C0.86627958 12.04826333 2.90931672 11.10288338 5 10 C5 9.34 5 8.68 5 8 C6.98 8 8.96 8 11 8 C8.1840211 10.93331135 5.23626153 13.4182039 2 15.875 C-1.91487603 18.95839794 -4.60590364 21.64709752 -7 26 C-14 19 -14 19 -14.4375 15.6875 C-13.7781983 10.13052851 -10.87628625 8.49663636 -6.6640625 5.13671875 C-4.45926907 3.40140026 -2.2381209 1.6919999 0 0 Z " fill="#F67439" transform="translate(31,110)"/>
<path d="M0 0 C0.7425 0.185625 1.485 0.37125 2.25 0.5625 C4.94990963 0.99203108 6.44631077 0.85122974 9 0 C8.67 0.66 8.34 1.32 8 2 C8.99 2.99 9.98 3.98 11 5 C11.99 3.35 12.98 1.7 14 0 C14.66 0.33 15.32 0.66 16 1 C15 3 15 3 14 4 C15.32 4.33 16.64 4.66 18 5 C18 6.32 18 7.64 18 9 C18.99 9 19.98 9 21 9 C21 10.65 21 12.3 21 14 C19.68 14.33 18.36 14.66 17 15 C17 13.68 17 12.36 17 11 C16.34 11 15.68 11 15 11 C14.34 12.32 13.68 13.64 13 15 C12.05125 14.67 11.1025 14.34 10.125 14 C7.22937548 12.89840809 7.22937548 12.89840809 5 13 C5 13.66 5 14.32 5 15 C4.34 15 3.68 15 3 15 C2.8125 12.125 2.8125 12.125 3 9 C3.99 8.34 4.98 7.68 6 7 C5.34 7 4.68 7 4 7 C2.68 7 1.36 7 0 7 C0 4.69 0 2.38 0 0 Z " fill="#CDCECE" transform="translate(126,152)"/>
<path d="M0 0 C1.32 0.99 2.64 1.98 4 3 C4.33 2.01 4.66 1.02 5 0 C5.66 0 6.32 0 7 0 C7 1.98 7 3.96 7 6 C7.66 6.33 8.32 6.66 9 7 C6.69 7.33 4.38 7.66 2 8 C2 10.31 2 12.62 2 15 C-5.625 16.25 -5.625 16.25 -9 14 C-9.29296875 10.9609375 -9.29296875 10.9609375 -9.1875 7.375 C-9.16042969 6.18648437 -9.13335937 4.99796875 -9.10546875 3.7734375 C-9.07066406 2.85820312 -9.03585938 1.94296875 -9 1 C-8.67 1.66 -8.34 2.32 -8 3 C-7.34 3 -6.68 3 -6 3 C-6 2.34 -6 1.68 -6 1 C-5.34 1 -4.68 1 -4 1 C-4 1.66 -4 2.32 -4 3 C-3.01 3 -2.02 3 -1 3 C-0.67 2.01 -0.34 1.02 0 0 Z " fill="#DFDFE0" transform="translate(95,152)"/>
<path d="M0 0 C4.95 0 9.9 0 15 0 C14.14285714 13.85714286 14.14285714 13.85714286 12 20 C10.35 20.33 8.7 20.66 7 21 C6.25 18.75 6.25 18.75 6 16 C7.875 13.875 7.875 13.875 10 12 C10.33 11.01 10.66 10.02 11 9 C9.68 9.33 8.36 9.66 7 10 C7 8.68 7 7.36 7 6 C6.01 6 5.02 6 4 6 C3.67 6.66 3.34 7.32 3 8 C2.34 7.34 1.68 6.68 1 6 C1.66 6 2.32 6 3 6 C3 5.01 3 4.02 3 3 C2.01 3 1.02 3 0 3 C0 2.01 0 1.02 0 0 Z " fill="#354C6F" transform="translate(60,117)"/>
<path d="M0 0 C0.99 0.33 1.98 0.66 3 1 C5.06145107 1.068991 7.12501401 1.08467727 9.1875 1.0625 C10.27417969 1.05347656 11.36085937 1.04445313 12.48046875 1.03515625 C13.31191406 1.02355469 14.14335937 1.01195313 15 1 C15 1.66 15 2.32 15 3 C19.95 3 24.9 3 30 3 C30 3.33 30 3.66 30 4 C29.20303711 3.99363525 28.40607422 3.98727051 27.58496094 3.98071289 C23.97235305 3.97202621 20.36231012 4.0166585 16.75 4.0625 C15.49574219 4.05154297 14.24148437 4.04058594 12.94921875 4.02929688 C6.68114709 3.89441519 6.68114709 3.89441519 1.23925781 6.44702148 C-0.86146566 9.84619827 -1.46603022 13.05900295 -0.75 16.9375 C-0.62109375 17.70964844 -0.4921875 18.48179688 -0.359375 19.27734375 C-0.24078125 19.84582031 -0.1221875 20.41429688 0 21 C-0.99 21.33 -1.98 21.66 -3 22 C-3.81567174 20.56429734 -4.62742093 19.12636566 -5.4375 17.6875 C-5.88996094 16.88699219 -6.34242187 16.08648437 -6.80859375 15.26171875 C-8 13 -8 13 -9 10 C-11.74241636 8.31329259 -14.69698651 7.36273966 -17.75 6.375 C-18.54921875 6.11460938 -19.3484375 5.85421875 -20.171875 5.5859375 C-20.77515625 5.39257812 -21.3784375 5.19921875 -22 5 C-21.67 4.01 -21.34 3.02 -21 2 C-14.7403205 4.21439255 -9.84262946 6.41224577 -5 11 C-4.35165346 9.730447 -3.70642185 8.45930294 -3.0625 7.1875 C-2.70285156 6.47980469 -2.34320313 5.77210937 -1.97265625 5.04296875 C-0.89269484 2.88189715 -0.89269484 2.88189715 0 0 Z " fill="#E5F0F6" transform="translate(114,91)"/>
<path d="M0 0 C0.66 0.33 1.32 0.66 2 1 C1.67 1.99 1.34 2.98 1 4 C1.495 3.505 1.99 3.01 2.5 2.5 C6.11630158 0.33021905 8.82231616 0.79111581 13 1 C13 1.99 13 2.98 13 4 C11.35 4.33 9.7 4.66 8 5 C9.32 5.33 10.64 5.66 12 6 C12 6.99 12 7.98 12 9 C10.02 9.99 10.02 9.99 8 11 C8 12.98 8 14.96 8 17 C8.99 16.67 9.98 16.34 11 16 C10.67 17.65 10.34 19.3 10 21 C9.01 21.33 8.02 21.66 7 22 C5.30117552 24.49759982 5.30117552 24.49759982 4 27 C3.34 26.67 2.68 26.34 2 26 C2.46800711 21.94393835 2.87953208 18.53411321 5 15 C4.01 15.33 3.02 15.66 2 16 C2 12.7 2 9.4 2 6 C1.34 6 0.68 6 0 6 C-0.38218767 4.34385343 -0.71395102 2.67542976 -1 1 C-0.67 0.67 -0.34 0.34 0 0 Z " fill="#F8E5CE" transform="translate(46,116)"/>
<path d="M0 0 C0.99 0.33 1.98 0.66 3 1 C-0.12391743 4.22468896 -3.36331966 7.29392978 -6.6875 10.3125 C-7.45449219 11.00988281 -8.22148437 11.70726563 -9.01171875 12.42578125 C-11 14 -11 14 -13 14 C-13.62914287 19.6681537 -13.62914287 19.6681537 -11.88671875 24.93359375 C-10.37805255 26.75671183 -10.37805255 26.75671183 -8 29 C-7.2884375 28.01 -7.2884375 28.01 -6.5625 27 C-3.07013181 22.91137382 0.93171968 19.50324139 5 16 C5.66 16.33 6.32 16.66 7 17 C6.22914062 17.73605469 5.45828125 18.47210938 4.6640625 19.23046875 C3.65064388 20.21573685 2.63764506 21.20143687 1.625 22.1875 C1.11710937 22.67025391 0.60921875 23.15300781 0.0859375 23.65039062 C-2.88345293 26.56117467 -4.78748787 29.00455339 -6 33 C-5.34 33 -4.68 33 -4 33 C-3.67 33.99 -3.34 34.98 -3 36 C-3.66 36 -4.32 36 -5 36 C-5 35.34 -5 34.68 -5 34 C-7.475 34.495 -7.475 34.495 -10 35 C-10.103125 34.443125 -10.20625 33.88625 -10.3125 33.3125 C-11.2327252 30.21719704 -12.69393133 27.30606867 -15 25 C-15.07244053 22.98035801 -15.08377188 20.95832876 -15.0625 18.9375 C-15.05347656 17.83277344 -15.04445313 16.72804688 -15.03515625 15.58984375 C-15.02355469 14.73519531 -15.01195312 13.88054687 -15 13 C-14.01 12.67 -13.02 12.34 -12 12 C-12 11.34 -12 10.68 -12 10 C-11.01 9.67 -10.02 9.34 -9 9 C-7.29006566 7.3777546 -5.62652316 5.70586575 -4 4 C-2 2 -2 2 0 0 Z " fill="#FCEFD8" transform="translate(31,106)"/>
<path d="M0 0 C0.33 0 0.66 0 1 0 C0.96519531 1.16917969 0.93039063 2.33835937 0.89453125 3.54296875 C0.86638284 5.09113141 0.83908381 6.63930968 0.8125 8.1875 C0.78736328 8.95642578 0.76222656 9.72535156 0.73632812 10.51757812 C0.67578575 15.2197028 1.03624789 18.11834041 4 22 C0.20839703 22.05786668 -3.58309311 22.09355054 -7.375 22.125 C-8.99535156 22.15013672 -8.99535156 22.15013672 -10.6484375 22.17578125 C-11.6796875 22.18222656 -12.7109375 22.18867188 -13.7734375 22.1953125 C-15.20308838 22.21102295 -15.20308838 22.21102295 -16.66162109 22.22705078 C-19 22 -19 22 -21 20 C-20.625 17.375 -20.625 17.375 -20 15 C-18.35 15.33 -16.7 15.66 -15 16 C-15 16.99 -15 17.98 -15 19 C-10.71 19 -6.42 19 -2 19 C-2 13.39 -2 7.78 -2 2 C-1.34 2 -0.68 2 0 2 C0 1.34 0 0.68 0 0 Z " fill="#344D6B" transform="translate(123,124)"/>
<path d="M0 0 C0 1.32 0 2.64 0 4 C1.32 3.67 2.64 3.34 4 3 C3.67 4.32 3.34 5.64 3 7 C2.34 7 1.68 7 1 7 C0.731875 7.969375 0.46375 8.93875 0.1875 9.9375 C-0.204375 10.948125 -0.59625 11.95875 -1 13 C-1.99 13.33 -2.98 13.66 -4 14 C-3.67 12.68 -3.34 11.36 -3 10 C-5.46278801 10 -6.85224119 10.85452863 -9 12 C-9.125 5.375 -9.125 5.375 -8 2 C-5.10441559 0.5522078 -3.25811062 0 0 0 Z " fill="#B8CAD8" transform="translate(67,123)"/>
<path d="M0 0 C0.33 0.66 0.66 1.32 1 2 C1.99 2.33 2.98 2.66 4 3 C4.33 2.34 4.66 1.68 5 1 C6.65 1.33 8.3 1.66 10 2 C10 2.66 10 3.32 10 4 C10.99 4.33 11.98 4.66 13 5 C12.34 6.32 11.68 7.64 11 9 C8.10077345 8.52803289 5.23344526 8.05558221 2.375 7.375 C-0.10789523 6.98296391 -1.63697002 7.21232334 -4 8 C-4 5.69 -4 3.38 -4 1 C-2 0 -2 0 0 0 Z " fill="#787876" transform="translate(165,150)"/>
<path d="M0 0 C0.66 0.33 1.32 0.66 2 1 C2 1.66 2 2.32 2 3 C3.32 3.66 4.64 4.32 6 5 C5.67 5.99 5.34 6.98 5 8 C5.99 8 6.98 8 8 8 C8 8.99 8 9.98 8 11 C7.34 11 6.68 11 6 11 C6 11.66 6 12.32 6 13 C5.34 13 4.68 13 4 13 C4 13.99 4 14.98 4 16 C3.34 16 2.68 16 2 16 C1.67 17.65 1.34 19.3 1 21 C0.01 21.33 -0.98 21.66 -2 22 C-2 19.69 -2 17.38 -2 15 C-0.35 14.34 1.3 13.68 3 13 C3 12.01 3 11.02 3 10 C2.01 10 1.02 10 0 10 C-0.33 10.99 -0.66 11.98 -1 13 C-1 11.68 -1 10.36 -1 9 C0.65 8.67 2.3 8.34 4 8 C4 7.01 4 6.02 4 5 C3.01 5 2.02 5 1 5 C0.67 5.99 0.34 6.98 0 8 C0 7.01 0 6.02 0 5 C-1.32 5.33 -2.64 5.66 -4 6 C-3.67 5.01 -3.34 4.02 -3 3 C-2.01 3 -1.02 3 0 3 C0 2.01 0 1.02 0 0 Z " fill="#8591A3" transform="translate(55,112)"/>
<path d="M0 0 C1.65 0 3.3 0 5 0 C5 0.66 5 1.32 5 2 C4.34 2 3.68 2 3 2 C3.33 3.65 3.66 5.3 4 7 C4.66 7 5.32 7 6 7 C6 4.69 6 2.38 6 0 C6.66 0 7.32 0 8 0 C8 0.66 8 1.32 8 2 C8.99 1.67 9.98 1.34 11 1 C11 2.65 11 4.3 11 6 C11.99 6.33 12.98 6.66 14 7 C12.576875 7.3403125 12.576875 7.3403125 11.125 7.6875 C7.80676612 8.69083714 7.80676612 8.69083714 6.625 11.625 C6.41875 12.40875 6.2125 13.1925 6 14 C6.66 14.33 7.32 14.66 8 15 C6.68 15 5.36 15 4 15 C3.67 13.68 3.34 12.36 3 11 C2.67 12.32 2.34 13.64 2 15 C1.34 15 0.68 15 0 15 C-0.23509196 10.18061476 0.54815522 6.53701494 2 2 C1.34 2 0.68 2 0 2 C0 1.34 0 0.68 0 0 Z " fill="#A2A2A2" transform="translate(179,151)"/>
<path d="M0 0 C3.62928915 1.20976305 4.11351038 2.27875374 6.125 5.4375 C6.64320312 6.24058594 7.16140625 7.04367188 7.6953125 7.87109375 C10.13998501 11.86015518 10.10536883 14.4094289 10.0625 19.125 C10.05347656 20.40632813 10.04445313 21.68765625 10.03515625 23.0078125 C10.02355469 23.99523437 10.01195313 24.98265625 10 26 C9.01 25.67 8.02 25.34 7 25 C6.90203125 24.05898437 6.8040625 23.11796875 6.703125 22.1484375 C5.64969279 12.83486017 5.64969279 12.83486017 1 5 C1 4.34 1 3.68 1 3 C0.01 2.67 -0.98 2.34 -2 2 C-1.34 1.34 -0.68 0.68 0 0 Z " fill="#E3EEF5" transform="translate(108,67)"/>
<path d="M0 0 C-10.61758785 8.72562405 -18.77572074 9.43331983 -32 9 C-31.66015625 6.61328125 -31.66015625 6.61328125 -31 4 C-28.4375 2.1875 -28.4375 2.1875 -26 1 C-26 2.65 -26 4.3 -26 6 C-23.36 6.66 -20.72 7.32 -18 8 C-18 7.34 -18 6.68 -18 6 C-14.01939223 4.82923301 -10.08378283 3.74250597 -6 3 C-6 2.01 -6 1.02 -6 0 C-3 -1 -3 -1 0 0 Z " fill="#B2CC6A" transform="translate(80,156)"/>
<path d="M0 0 C0.495 1.485 0.495 1.485 1 3 C-0.93254772 5.0245738 -2.63158688 6.42105792 -5 8 C-6.32 8 -7.64 8 -9 8 C-9 8.66 -9 9.32 -9 10 C-14.03854106 10.83211276 -18.8125662 11.1078534 -23.9375 11.0625 C-24.62134766 11.05798828 -25.30519531 11.05347656 -26.00976562 11.04882812 C-27.67321604 11.0371956 -29.3366205 11.01926694 -31 11 C-31.33 9.68 -31.66 8.36 -32 7 C-31.67 7.66 -31.34 8.32 -31 9 C-19.46379984 8.71374193 -8.9215924 8.32681957 0 0 Z " fill="#F1FADB" transform="translate(79,156)"/>
<path d="M0 0 C0.66 0.33 1.32 0.66 2 1 C1.21085079 2.60540659 0.41858235 4.20928016 -0.375 5.8125 C-0.81585938 6.70582031 -1.25671875 7.59914062 -1.7109375 8.51953125 C-3 11 -3 11 -5 14 C-5.66 14 -6.32 14 -7 14 C-7 14.66 -7 15.32 -7 16 C-7.66 16.33 -8.32 16.66 -9 17 C-9 18.65 -9 20.3 -9 22 C-12.3 21.67 -15.6 21.34 -19 21 C-15 18 -15 18 -13.25390625 16.74609375 C-8.64482407 13.18017567 -6.43539439 9.50478977 -4.140625 4.171875 C-3 2 -3 2 0 0 Z " fill="#E1F0F6" transform="translate(112,123)"/>
<path d="M0 0 C1.32 0.99 2.64 1.98 4 3 C4.33 2.01 4.66 1.02 5 0 C5.66 0 6.32 0 7 0 C7 1.98 7 3.96 7 6 C7.66 6.33 8.32 6.66 9 7 C6.69 7.33 4.38 7.66 2 8 C2 10.31 2 12.62 2 15 C0.68 15 -0.64 15 -2 15 C-1.979375 14.0925 -1.95875 13.185 -1.9375 12.25 C-1.83564516 9.1516878 -1.83564516 9.1516878 -2.6875 6.9375 C-3.16730373 3.96271685 -1.65572671 2.38424646 0 0 Z " fill="#B3B4B3" transform="translate(95,152)"/>
<path d="M0 0 C0.28875 0.61875 0.5775 1.2375 0.875 1.875 C1.93720042 4.13325765 1.93720042 4.13325765 4 6 C3.625 8.625 3.625 8.625 3 11 C2.34 11 1.68 11 1 11 C0.67 12.32 0.34 13.64 0 15 C0.99 15.33 1.98 15.66 3 16 C2.01 16 1.02 16 0 16 C-0.33 16.66 -0.66 17.32 -1 18 C-1 17.34 -1 16.68 -1 16 C-1.66 16 -2.32 16 -3 16 C-3.33 14.68 -3.66 13.36 -4 12 C-4.66 12 -5.32 12 -6 12 C-4 8 -2 4 0 0 Z " fill="#F4F8E4" transform="translate(86,144)"/>
<path d="M0 0 C2 3 2 3 5 12 C11.93 12.33 18.86 12.66 26 13 C26 13.99 26 14.98 26 16 C25.67 15.67 25.34 15.34 25 15 C23.14825294 14.84213692 21.2909089 14.74892644 19.43359375 14.68359375 C17.7465332 14.62075195 17.7465332 14.62075195 16.02539062 14.55664062 C14.24938477 14.49766602 14.24938477 14.49766602 12.4375 14.4375 C11.24962891 14.39431641 10.06175781 14.35113281 8.83789062 14.30664062 C5.89205216 14.20016454 2.9461257 14.09815159 0 14 C-2.43259162 5.7851767 -2.43259162 5.7851767 -2 2 C-1.34 1.34 -0.68 0.68 0 0 Z " fill="#304969" transform="translate(114,101)"/>
<path d="M0 0 C3.96 0 7.92 0 12 0 C11.67 1.32 11.34 2.64 11 4 C11 3.34 11 2.68 11 2 C10.34 2 9.68 2 9 2 C8.79375 2.598125 8.5875 3.19625 8.375 3.8125 C6.47304173 6.8383427 4.24699596 7.64708502 1 9 C0.34 9 -0.32 9 -1 9 C-0.67 6.03 -0.34 3.06 0 0 Z " fill="#334B5D" transform="translate(76,126)"/>
<path d="M0 0 C0.33 0.99 0.66 1.98 1 3 C-0.45365269 4.17249353 -1.91307419 5.33783816 -3.375 6.5 C-4.59316406 7.47453125 -4.59316406 7.47453125 -5.8359375 8.46875 C-8 10 -8 10 -10 10 C-10.66 11.32 -11.32 12.64 -12 14 C-12.66 14 -13.32 14 -14 14 C-14.309375 14.61875 -14.61875 15.2375 -14.9375 15.875 C-15.625 17.25 -16.3125 18.625 -17 20 C-17.66 20 -18.32 20 -19 20 C-18.65033296 14.87785042 -15.83200051 12.2635227 -12.3125 8.875 C-11.79494141 8.35035156 -11.27738281 7.82570313 -10.74414062 7.28515625 C-7.43929991 4.03381856 -4.30462346 1.87157542 0 0 Z " fill="#D38051" transform="translate(44,119)"/>
<path d="M0 0 C1.1446875 0.2475 1.1446875 0.2475 2.3125 0.5 C5.00856207 1.00159294 6.44020291 0.8532657 9 0 C9.33 0.66 9.66 1.32 10 2 C9.34 2 8.68 2 8 2 C7.67 3.32 7.34 4.64 7 6 C5.68 6 4.36 6 3 6 C3 8.31 3 10.62 3 13 C2.01 12.67 1.02 12.34 0 12 C0 10.35 0 8.7 0 7 C-0.99 6.67 -1.98 6.34 -3 6 C-1.125 1.125 -1.125 1.125 0 0 Z " fill="#F7F8F7" transform="translate(123,146)"/>
<path d="M0 0 C0.66 0 1.32 0 2 0 C2.48580343 7.85382207 2.39988124 15.18290006 -2 22 C-4.140625 23.2734375 -4.140625 23.2734375 -6 24 C-6.33 22.02 -6.66 20.04 -7 18 C-5.68 17.67 -4.36 17.34 -3 17 C-2.855625 16.195625 -2.71125 15.39125 -2.5625 14.5625 C-2 12 -2 12 -1 11 C-0.76636119 9.15108054 -0.58696365 7.29511969 -0.4375 5.4375 C-0.35371094 4.42558594 -0.26992187 3.41367188 -0.18359375 2.37109375 C-0.12300781 1.58863281 -0.06242188 0.80617188 0 0 Z " fill="#364E71" transform="translate(159,110)"/>
<path d="M0 0 C0.02714735 2.22909871 0.04646254 4.45829367 0.0625 6.6875 C0.07410156 7.92886719 0.08570313 9.17023438 0.09765625 10.44921875 C0.01478673 13.46235454 -0.29160551 16.08275339 -1 19 C-1.33 19 -1.66 19 -2 19 C-2 14.38 -2 9.76 -2 5 C-3.299375 5.78375 -4.59875 6.5675 -5.9375 7.375 C-6.66839844 7.81585938 -7.39929687 8.25671875 -8.15234375 8.7109375 C-10.13772272 9.8773984 -10.13772272 9.8773984 -11 12 C-12.32 11.67 -13.64 11.34 -15 11 C-12.87996003 9.16064138 -10.75442773 7.32843267 -8.625 5.5 C-8.02171875 4.97535156 -7.4184375 4.45070313 -6.796875 3.91015625 C-2.2265625 0 -2.2265625 0 0 0 Z " fill="#D58255" transform="translate(47,98)"/>
<path d="M0 0 C1.98 0 3.96 0 6 0 C3.1840211 2.93331135 0.23626153 5.4182039 -3 7.875 C-6.91487603 10.95839794 -9.60590364 13.64709752 -12 18 C-13.65 16.35 -15.3 14.7 -17 13 C-16.34 12.67 -15.68 12.34 -15 12 C-15 12.66 -15 13.32 -15 14 C-14.01 13.67 -13.02 13.34 -12 13 C-11.67 12.01 -11.34 11.02 -11 10 C-10.01 9.67 -9.02 9.34 -8 9 C-7.175 8.01 -6.35 7.02 -5.5 6 C-3 3 -3 3 0 2 C0 1.34 0 0.68 0 0 Z " fill="#D7804D" transform="translate(36,118)"/>
<path d="M0 0 C1.32 0.66 2.64 1.32 4 2 C4 2.66 4 3.32 4 4 C5.32 4 6.64 4 8 4 C7.67 5.98 7.34 7.96 7 10 C3.94736336 10.98120464 2.05263664 10.98120464 -1 10 C-1.33 10.66 -1.66 11.32 -2 12 C-2 10.68 -2 9.36 -2 8 C-2.33 7.01 -2.66 6.02 -3 5 C-1.68 4.67 -0.36 4.34 1 4 C0.67 2.68 0.34 1.36 0 0 Z " fill="#E0E0E0" transform="translate(168,156)"/>
<path d="M0 0 C0.66 0 1.32 0 2 0 C4.4793824 6.24273068 5.31985731 11.28299653 5 18 C4.34 18 3.68 18 3 18 C3 18.99 3 19.98 3 21 C2.01 20.67 1.02 20.34 0 20 C0 13.4 0 6.8 0 0 Z " fill="#CE8B61" transform="translate(52,92)"/>
<path d="M0 0 C-0.55038389 3.70699735 -1.86529564 5.06506756 -4.75 7.375 C-8.30512735 10.33547475 -11.15745813 13.35799323 -14 17 C-14.99 16.67 -15.98 16.34 -17 16 C-13.73122875 10.45730092 -7.00806826 0 0 0 Z " fill="#D77B4E" transform="translate(44,125)"/>
<path d="M0 0 C0.99 0.33 1.98 0.66 3 1 C5.06145107 1.068991 7.12501401 1.08467727 9.1875 1.0625 C10.27417969 1.05347656 11.36085938 1.04445313 12.48046875 1.03515625 C13.31191406 1.02355469 14.14335937 1.01195313 15 1 C15 1.66 15 2.32 15 3 C19.95 3 24.9 3 30 3 C30 3.33 30 3.66 30 4 C16.635 4.495 16.635 4.495 3 5 C2.67 5.99 2.34 6.98 2 8 C1.01 8 0.02 8 -1 8 C-0.67 5.36 -0.34 2.72 0 0 Z " fill="#CEDAE8" transform="translate(114,91)"/>
<path d="M0 0 C1.98983228 3.97966457 2.22400716 4.67675132 1.625 8.75 C1.45871094 9.94882813 1.45871094 9.94882813 1.2890625 11.171875 C1.14597656 12.07679688 1.14597656 12.07679688 1 13 C2.423125 12.2575 2.423125 12.2575 3.875 11.5 C7 10 7 10 9 10 C9 10.66 9 11.32 9 12 C5.96295026 13.32336947 2.91963952 14.63169786 -0.125 15.9375 C-1.40890625 16.49727539 -1.40890625 16.49727539 -2.71875 17.06835938 C-7.14678218 18.9587885 -11.16086277 20.50022025 -16 21 C-11.71361582 17.50479421 -7.14032038 15.96143804 -2 14 C-1.34 9.38 -0.68 4.76 0 0 Z " fill="#C2DAD7" transform="translate(74,122)"/>
<path d="M0 0 C4.95 0 9.9 0 15 0 C15 1.65 15 3.3 15 5 C12.92446352 5.5534764 11.15634036 6 9 6 C9 5.34 9 4.68 9 4 C8.443125 4.20625 7.88625 4.4125 7.3125 4.625 C4.340462 5.10695211 2.68020059 4.26565028 0 3 C0 2.01 0 1.02 0 0 Z " fill="#3F5988" transform="translate(60,117)"/>
<path d="M0 0 C0.66 0.33 1.32 0.66 2 1 C1 3 1 3 0 4 C1.32 4.33 2.64 4.66 4 5 C4 6.32 4 7.64 4 9 C4.99 9 5.98 9 7 9 C7 10.65 7 12.3 7 14 C5.68 14.33 4.36 14.66 3 15 C3 13.68 3 12.36 3 11 C1.68 10.67 0.36 10.34 -1 10 C-2.25 3.375 -2.25 3.375 0 0 Z " fill="#A4A4A5" transform="translate(140,152)"/>
<path d="M0 0 C0.33 0.66 0.66 1.32 1 2 C0.67 2.99 0.34 3.98 0 5 C-0.66 5 -1.32 5 -2 5 C-2 5.66 -2 6.32 -2 7 C-4.96187272 9.17204 -7.50685991 10.83561997 -11 12 C-11.33 14.64 -11.66 17.28 -12 20 C-12.66 19.67 -13.32 19.34 -14 19 C-14.39703955 14.95019658 -14.60791506 12.78440653 -12.0625 9.5 C-8.0949254 6.26116359 -4.08561172 3.08868686 0 0 Z " fill="#DD8054" transform="translate(31,110)"/>
<path d="M0 0 C3.63 0 7.26 0 11 0 C10.67 0.99 10.34 1.98 10 3 C9.67 2.67 9.34 2.34 9 2 C8.3503125 2.7425 8.3503125 2.7425 7.6875 3.5 C6 5 6 5 3 5 C3 6.98 3 8.96 3 11 C1.68 11 0.36 11 -1 11 C-0.67 7.37 -0.34 3.74 0 0 Z " fill="#3D5372" transform="translate(114,117)"/>
<path d="M0 0 C3.74497454 0.21399855 4.92156923 0.92156923 7.625 3.625 C12.10233379 9.55711417 13.38294236 14.72409518 13 22 C12.67 22 12.34 22 12 22 C12 19.69 12 17.38 12 15 C11.01 15 10.02 15 9 15 C8.18501438 13.3970947 7.37310073 11.79262722 6.5625 10.1875 C6.11003906 9.29417969 5.65757812 8.40085937 5.19140625 7.48046875 C4 5 4 5 3 2 C2.01 1.67 1.02 1.34 0 1 C0 0.67 0 0.34 0 0 Z " fill="#DDEAF5" transform="translate(152,98)"/>
<path d="M0 0 C2.125 5.625 2.125 5.625 1 9 C0.01 9.33 -0.98 9.66 -2 10 C-2.66 7.36 -3.32 4.72 -4 2 C-11.92 1.67 -19.84 1.34 -28 1 C-28 0.67 -28 0.34 -28 0 C-9.17995444 -1.33257403 -9.17995444 -1.33257403 0 0 Z " fill="#31496B" transform="translate(92,114)"/>
<path d="M0 0 C0.66 0 1.32 0 2 0 C2 2.97 2 5.94 2 9 C2.99 9 3.98 9 5 9 C4.67 10.98 4.34 12.96 4 15 C3.01 15 2.02 15 1 15 C0.34 13.68 -0.32 12.36 -1 11 C-1.66 11 -2.32 11 -3 11 C-3.33 12.32 -3.66 13.64 -4 15 C-4 13.68 -4 12.36 -4 11 C-4.66 11 -5.32 11 -6 11 C-6 10.34 -6 9.68 -6 9 C-4.35 8.34 -2.7 7.68 -1 7 C-0.67 4.69 -0.34 2.38 0 0 Z " fill="#AFB0AF" transform="translate(113,152)"/>
<path d="M0 0 C0.7425 0.185625 1.485 0.37125 2.25 0.5625 C4.94990963 0.99203108 6.44631077 0.85122974 9 0 C8.67 0.66 8.34 1.32 8 2 C8.66 2.33 9.32 2.66 10 3 C9.67 4.32 9.34 5.64 9 7 C8.443125 6.814375 7.88625 6.62875 7.3125 6.4375 C4.600867 5.92448835 2.65628961 6.3359276 0 7 C0 4.69 0 2.38 0 0 Z " fill="#838482" transform="translate(126,152)"/>
<path d="M0 0 C0.99 0.33 1.98 0.66 3 1 C2.85834107 3.39614575 2.71181159 5.79182897 2.5625 8.1875 C2.50352539 9.19780273 2.50352539 9.19780273 2.44335938 10.22851562 C2.21072435 13.89699102 1.82792989 17.41694206 1 21 C0.34 20.67 -0.32 20.34 -1 20 C-1.02888514 16.85418577 -1.04675923 13.70840531 -1.0625 10.5625 C-1.07087891 9.66466797 -1.07925781 8.76683594 -1.08789062 7.84179688 C-1.09111328 6.98779297 -1.09433594 6.13378906 -1.09765625 5.25390625 C-1.10551147 4.06776733 -1.10551147 4.06776733 -1.11352539 2.85766602 C-1 1 -1 1 0 0 Z " fill="#344C6B" transform="translate(168,120)"/>
<path d="M0 0 C2.52775351 3.79163027 2.22443035 6.80874031 2.125 11.1875 C2.11597656 11.93708984 2.10695312 12.68667969 2.09765625 13.45898438 C2.07412578 15.30612654 2.03825561 17.15310412 2 19 C1.01 19.33 0.02 19.66 -1 20 C-1.02888514 16.85418577 -1.04675923 13.70840531 -1.0625 10.5625 C-1.07087891 9.66466797 -1.07925781 8.76683594 -1.08789062 7.84179688 C-1.09111328 6.98779297 -1.09433594 6.13378906 -1.09765625 5.25390625 C-1.10551147 4.06776733 -1.10551147 4.06776733 -1.11352539 2.85766602 C-1 1 -1 1 0 0 Z " fill="#D5855A" transform="translate(49,95)"/>
<path d="M0 0 C4.29 0 8.58 0 13 0 C13 0.66 13 1.32 13 2 C13.66 2.33 14.32 2.66 15 3 C15 3.99 15 4.98 15 6 C14.01 6.33 13.02 6.66 12 7 C11.01 6.01 10.02 5.02 9 4 C8.01 4.33 7.02 4.66 6 5 C5.01 4.34 4.02 3.68 3 3 C2.34 3 1.68 3 1 3 C0.67 2.01 0.34 1.02 0 0 Z " fill="#294975" transform="translate(112,64)"/>
<path d="M0 0 C6.93 0 13.86 0 21 0 C20.01 1.32 19.02 2.64 18 4 C17.01 3.67 16.02 3.34 15 3 C12.60745424 2.77439324 10.21071877 2.59151405 7.8125 2.4375 C6.54019531 2.35371094 5.26789063 2.26992187 3.95703125 2.18359375 C2.98121094 2.12300781 2.00539062 2.06242187 1 2 C1 3.65 1 5.3 1 7 C0.67 7 0.34 7 0 7 C0 4.69 0 2.38 0 0 Z " fill="#53667E" transform="translate(141,63)"/>
<path d="M0 0 C3.68754757 0.49831724 5.60490662 1.10067643 8 4 C7.67 4.66 7.34 5.32 7 6 C6.01 6 5.02 6 4 6 C4.33 6.66 4.66 7.32 5 8 C4.01 8.33 3.02 8.66 2 9 C1.01 10.485 1.01 10.485 0 12 C-0.99 11.34 -1.98 10.68 -3 10 C-2.67 8.68 -2.34 7.36 -2 6 C-1.34 6 -0.68 6 0 6 C-0.33 5.01 -0.66 4.02 -1 3 C0.32 3 1.64 3 3 3 C3 2.34 3 1.68 3 1 C2.01 0.67 1.02 0.34 0 0 Z " fill="#F4F3F4" transform="translate(162,156)"/>
<path d="M0 0 C2.475 0.99 2.475 0.99 5 2 C5 3.98 5 5.96 5 8 C3.35 8 1.7 8 0 8 C-0.33 8.66 -0.66 9.32 -1 10 C-1 9.01 -1 8.02 -1 7 C-1.66 7 -2.32 7 -3 7 C-2.25 2.25 -2.25 2.25 0 0 Z " fill="#FAFAFA" transform="translate(188,158)"/>
<path d="M0 0 C2.4375 0.375 2.4375 0.375 5 1 C5.33 1.66 5.66 2.32 6 3 C4.23628182 4.03307771 2.46374967 5.05112049 0.6875 6.0625 C-0.79169922 6.91521484 -0.79169922 6.91521484 -2.30078125 7.78515625 C-5 9 -5 9 -8 8 C-6.68 5.69 -5.36 3.38 -4 1 C-1.525 1.99 -1.525 1.99 1 3 C0.67 2.01 0.34 1.02 0 0 Z " fill="#AFC967" transform="translate(50,151)"/>
<path d="M0 0 C-0.53176995 4.13813705 -2.77932166 6.27082318 -5.5625 9.25 C-6.38878906 10.14203125 -7.21507812 11.0340625 -8.06640625 11.953125 C-8.70449219 12.62859375 -9.34257813 13.3040625 -10 14 C-10.99 13.67 -11.98 13.34 -13 13 C-5.07317073 0 -5.07317073 0 0 0 Z " fill="#D27F54" transform="translate(43,131)"/>
<path d="M0 0 C0.66 0.33 1.32 0.66 2 1 C2 1.66 2 2.32 2 3 C2.66 3.33 3.32 3.66 4 4 C3.67 4.515625 3.34 5.03125 3 5.5625 C1.67989123 8.78026512 1.86757895 11.5570528 2 15 C2.99 15.33 3.98 15.66 5 16 C4.34 17.32 3.68 18.64 3 20 C0.45703125 18.515625 0.45703125 18.515625 -2 16 C-2.03958698 12.96702853 -1.86244877 10.67273242 -1.3125 7.75 C-1.19455078 7.00492187 -1.07660156 6.25984375 -0.95507812 5.4921875 C-0.66104084 3.65739486 -0.3337149 1.82799243 0 0 Z " fill="#38516D" transform="translate(156,82)"/>
<path d="M0 0 C0.66 0.66 1.32 1.32 2 2 C2.99 1.67 3.98 1.34 5 1 C4.67 2.65 4.34 4.3 4 6 C3.01 6.33 2.02 6.66 1 7 C-0.69882448 9.49759982 -0.69882448 9.49759982 -2 12 C-2.66 11.67 -3.32 11.34 -4 11 C-3.56179109 6.44262737 -3.14958831 3.42346555 0 0 Z " fill="#E1B8A1" transform="translate(52,131)"/>
<path d="M0 0 C4.29 0 8.58 0 13 0 C13 0.33 13 0.66 13 1 C9.37 1 5.74 1 2 1 C2.99 1.66 3.98 2.32 5 3 C4.54625 3.61875 4.0925 4.2375 3.625 4.875 C1.43160948 9.0930587 0.76916651 13.33975586 0 18 C-0.33 18 -0.66 18 -1 18 C-1.11269443 11.8894576 -0.89604368 6.04829486 0 0 Z " fill="#4F6383" transform="translate(61,64)"/>
<path d="M0 0 C0.79921875 0.00644531 1.5984375 0.01289062 2.421875 0.01953125 C3.246875 0.03628906 4.071875 0.05304687 4.921875 0.0703125 C5.76234375 0.07933594 6.6028125 0.08835938 7.46875 0.09765625 C9.53658104 0.12115433 11.60426495 0.15702342 13.671875 0.1953125 C12.681875 1.6803125 12.681875 1.6803125 11.671875 3.1953125 C11.053125 3.0096875 10.434375 2.8240625 9.796875 2.6328125 C7.63027322 1.95845074 7.63027322 1.95845074 5.671875 3.1953125 C3.79807895 3.26565019 1.92186398 3.2796147 0.046875 3.2578125 C-0.95601562 3.24878906 -1.95890625 3.23976563 -2.9921875 3.23046875 C-3.76304687 3.21886719 -4.53390625 3.20726563 -5.328125 3.1953125 C-5.658125 3.8553125 -5.988125 4.5153125 -6.328125 5.1953125 C-7.318125 5.1953125 -8.308125 5.1953125 -9.328125 5.1953125 C-8.328125 2.1953125 -8.328125 2.1953125 -6.53613281 1.02001953 C-4.18021146 0.14006571 -2.50432202 -0.03577603 0 0 Z " fill="#304C6F" transform="translate(170.328125,62.8046875)"/>
<path d="M0 0 C-12.55734812 9.64771868 -12.55734812 9.64771868 -17.8125 9.5625 C-18.864375 9.376875 -19.91625 9.19125 -21 9 C-20.22849609 8.63455078 -20.22849609 8.63455078 -19.44140625 8.26171875 C-15.54098564 6.24598138 -11.79291431 3.9441304 -8.04492188 1.65820312 C-3.33476713 -1.11158904 -3.33476713 -1.11158904 0 0 Z " fill="#EDF7C8" transform="translate(62,152)"/>
<path d="M0 0 C0.99 0.33 1.98 0.66 3 1 C3 1.66 3 2.32 3 3 C3.66 3.33 4.32 3.66 5 4 C4.01 4.66 3.02 5.32 2 6 C1.67 6.680625 1.34 7.36125 1 8.0625 C0 10 0 10 -3 11 C-3.125 4.375 -3.125 4.375 -2 1 C-1.34 0.67 -0.68 0.34 0 0 Z " fill="#9FADBC" transform="translate(61,124)"/>
<path d="M0 0 C0.99 0 1.98 0 3 0 C3.66 2.64 4.32 5.28 5 8 C5.9075 7.814375 6.815 7.62875 7.75 7.4375 C10.68314324 7.04265379 12.2644657 7.05308428 15 8 C15 8.66 15 9.32 15 10 C4.95727457 10.77917697 4.95727457 10.77917697 1.3125 7.8125 C-0.04736166 4.89851072 -0.36209583 3.16833849 0 0 Z " fill="#344A6D" transform="translate(59,83)"/>
<path d="M0 0 C0 0.66 0 1.32 0 2 C-0.87011719 2.38478516 -0.87011719 2.38478516 -1.7578125 2.77734375 C-8.27311611 5.9704876 -11.50033526 9.70060346 -15 16 C-15.66 15.01 -16.32 14.02 -17 13 C-15.625 9.3125 -15.625 9.3125 -14 6 C-13.01 6 -12.02 6 -11 6 C-10.38125 5.38125 -9.7625 4.7625 -9.125 4.125 C-6.45071202 1.45071202 -3.83418752 0 0 0 Z " fill="#F0EBBE" transform="translate(58,143)"/>
<path d="M0 0 C0.66 0 1.32 0 2 0 C2.33 1.32 2.66 2.64 3 4 C4.32 3.01 5.64 2.02 7 1 C6.67 2.65 6.34 4.3 6 6 C5.01 6.33 4.02 6.66 3 7 C1.79117904 9.00016466 1.79117904 9.00016466 1 11 C0.67 11 0.34 11 0 11 C-0.19406478 9.35492782 -0.38007935 7.70890406 -0.5625 6.0625 C-0.66691406 5.14597656 -0.77132812 4.22945312 -0.87890625 3.28515625 C-0.91886719 2.53105469 -0.95882812 1.77695313 -1 1 C-0.67 0.67 -0.34 0.34 0 0 Z " fill="#C7977B" transform="translate(45,140)"/>
<path d="M0 0 C0.66 0 1.32 0 2 0 C1.67566492 5.35152885 -1.49704824 8.28280043 -5 12 C-5.99 11.67 -6.98 11.34 -8 11 C-5.71094117 6.90378947 -3.14344452 3.46584909 0 0 Z " fill="#D28556" transform="translate(41,137)"/>
<path d="M0 0 C4.81100991 2.46718457 4.81100991 2.46718457 5.6484375 4.828125 C6.01345114 7.08309814 6.16794379 9.21583475 6.1875 11.5 C6.20167969 12.2528125 6.21585938 13.005625 6.23046875 13.78125 C5.97417278 16.24864173 5.22845153 17.86356256 4 20 C3.14072109 15.59619561 3 11.4769886 3 7 C2.67 6.01 2.34 5.02 2 4 C1.34 3.67 0.68 3.34 0 3 C0 2.01 0 1.02 0 0 Z " fill="#435879" transform="translate(125,64)"/>
<path d="M0 0 C2.475 0.495 2.475 0.495 5 1 C5 1.66 5 2.32 5 3 C5.99 3.33 6.98 3.66 8 4 C7.34 5.32 6.68 6.64 6 8 C3.13275314 7.42655063 2.1385485 7.1385485 0 5 C-0.125 2.375 -0.125 2.375 0 0 Z " fill="#ABA9AA" transform="translate(170,151)"/>
<path d="M0 0 C0.66 0.66 1.32 1.32 2 2 C-3.0022779 12.74259681 -3.0022779 12.74259681 -7 16 C-7.99 15.67 -8.98 15.34 -10 15 C-9.401875 14.46375 -8.80375 13.9275 -8.1875 13.375 C-5.78895617 10.7708667 -4.54656286 8.16342402 -3 5 C-2.34 4.67 -1.68 4.34 -1 4 C-0.34786708 1.97536745 -0.34786708 1.97536745 0 0 Z " fill="#384F69" transform="translate(108,123)"/>
<path d="M0 0 C0.66 0 1.32 0 2 0 C2 0.66 2 1.32 2 2 C2.99 1.67 3.98 1.34 5 1 C5 2.65 5 4.3 5 6 C5.99 6.33 6.98 6.66 8 7 C6.576875 7.4640625 6.576875 7.4640625 5.125 7.9375 C2.13919592 8.87394742 2.13919592 8.87394742 0 10 C0 6.7 0 3.4 0 0 Z " fill="#949494" transform="translate(185,151)"/>
<path d="M0 0 C0.33 0.66 0.66 1.32 1 2 C1.66 2.33 2.32 2.66 3 3 C2.34 3 1.68 3 1 3 C1 3.99 1 4.98 1 6 C0.34 6 -0.32 6 -1 6 C-1.33 7.65 -1.66 9.3 -2 11 C-2.99 11.33 -3.98 11.66 -5 12 C-5 9.69 -5 7.38 -5 5 C-3.35 4.34 -1.7 3.68 0 3 C0 2.01 0 1.02 0 0 Z " fill="#7A8996" transform="translate(58,122)"/>
<path d="M0 0 C0.33 0 0.66 0 1 0 C1 2.31 1 4.62 1 7 C3.31 7 5.62 7 8 7 C8.33 6.34 8.66 5.68 9 5 C9 5.66 9 6.32 9 7 C9.99 7.33 10.98 7.66 12 8 C11.67 8.66 11.34 9.32 11 10 C7.04 9.67 3.08 9.34 -1 9 C-0.67 6.03 -0.34 3.06 0 0 Z " fill="#4B607D" transform="translate(82,76)"/>
<path d="M0 0 C4.73733292 3.72272303 4.73733292 3.72272303 5.41259766 7.00634766 C5.49122262 9.29255856 5.43694547 11.52844705 5.3125 13.8125 C5.28994141 14.60076172 5.26738281 15.38902344 5.24414062 16.20117188 C5.18554161 18.13493929 5.09586827 20.06772167 5 22 C4.01 22.33 3.02 22.66 2 23 C2.11859375 21.83082031 2.2371875 20.66164063 2.359375 19.45703125 C2.49072728 17.9089508 2.6208722 16.36076758 2.75 14.8125 C2.83121094 14.04357422 2.91242188 13.27464844 2.99609375 12.48242188 C3.31845594 8.30962237 3.37302662 6.57349171 1.015625 2.94921875 C0.35046875 2.30597656 -0.3146875 1.66273437 -1 1 C-0.67 0.67 -0.34 0.34 0 0 Z " fill="#DBEFF6" transform="translate(77,64)"/>
<path d="M0 0 C0 2.64 0 5.28 0 8 C-1.65 7.67 -3.3 7.34 -5 7 C-5.33 5.35 -5.66 3.7 -6 2 C-2.25 0 -2.25 0 0 0 Z " fill="#F2782D" transform="translate(45,103)"/>
<path d="M0 0 C7.06896273 2.10459486 11.86376922 3.72433951 16 10 C15.01 10 14.02 10 13 10 C13 9.34 13 8.68 13 8 C10.14589666 6.49439503 7.31875358 5.36783204 4.25 4.375 C3.45078125 4.11460938 2.6515625 3.85421875 1.828125 3.5859375 C1.22484375 3.39257812 0.6215625 3.19921875 0 3 C0 2.01 0 1.02 0 0 Z " fill="#C8DCED" transform="translate(92,93)"/>
<path d="M0 0 C0.99 0.33 1.98 0.66 3 1 C3.05395478 2.62463842 3.09277195 4.24978541 3.125 5.875 C3.14820312 6.77992187 3.17140625 7.68484375 3.1953125 8.6171875 C3 11 3 11 1 13 C0 12 0 12 -0.09765625 9.27734375 C-0.08605469 8.17519531 -0.07445313 7.07304688 -0.0625 5.9375 C-0.05347656 4.83277344 -0.04445313 3.72804688 -0.03515625 2.58984375 C-0.02355469 1.73519531 -0.01195313 0.88054687 0 0 Z " fill="#425676" transform="translate(108,111)"/>
<path d="M0 0 C0.87840996 3.09720845 0.99435406 4.90645403 0 8 C-2.31 8 -4.62 8 -7 8 C-7 7.01 -7 6.02 -7 5 C-5.46875 3.61328125 -5.46875 3.61328125 -3.5 2.3125 C-2.8503125 1.87550781 -2.200625 1.43851563 -1.53125 0.98828125 C-1.0259375 0.66214844 -0.520625 0.33601562 0 0 Z " fill="#415376" transform="translate(155,137)"/>
<path d="M0 0 C0.66 0.66 1.32 1.32 2 2 C2.99 2 3.98 2 5 2 C5 2.99 5 3.98 5 5 C0.545 5.495 0.545 5.495 -4 6 C-4 4.68 -4 3.36 -4 2 C-2.68 1.34 -1.36 0.68 0 0 Z " fill="#7D90A5" transform="translate(62,134)"/>
<path d="M0 0 C2.475 0.495 2.475 0.495 5 1 C5 2.65 5 4.3 5 6 C3.35 6.33 1.7 6.66 0 7 C0 4.69 0 2.38 0 0 Z " fill="#6C6E6E" transform="translate(119,152)"/>
<path d="M0 0 C0.66 0 1.32 0 2 0 C2 1.98 2 3.96 2 6 C2.66 6 3.32 6 4 6 C4.33 5.34 4.66 4.68 5 4 C5.66 6.31 6.32 8.62 7 11 C6.01 11 5.02 11 4 11 C4 10.34 4 9.68 4 9 C3.01 9 2.02 9 1 9 C0.67 6.03 0.34 3.06 0 0 Z " fill="#F5F6F5" transform="translate(143,152)"/>
<path d="M0 0 C0.66 0.33 1.32 0.66 2 1 C1.24074219 1.74765625 0.48148438 2.4953125 -0.30078125 3.265625 C-1.30482136 4.26028156 -2.30872017 5.25508077 -3.3125 6.25 C-3.81201172 6.74113281 -4.31152344 7.23226562 -4.82617188 7.73828125 C-7.45671339 10.35140196 -9.87685162 12.95657911 -12 16 C-11.13910534 8.46717168 -5.52439411 4.51572664 0 0 Z " fill="#FCD4A8" transform="translate(36,122)"/>
<path d="M0 0 C3 2 3 2 3.9375 4.0625 C4.83330129 6.20673909 4.83330129 6.20673909 7.125 6.75 C7.74375 6.8325 8.3625 6.915 9 7 C9 7.33 9 7.66 9 8 C5.7 8 2.4 8 -1 8 C-0.67 5.36 -0.34 2.72 0 0 Z " fill="#2E486C" transform="translate(179,75)"/>
<path d="M0 0 C0.33 0 0.66 0 1 0 C1.41176754 3.60296594 1.1535853 4.78402067 -1 7.8125 C-1.66 8.534375 -2.32 9.25625 -3 10 C-3.99 9.67 -4.98 9.34 -6 9 C-4.47300326 5.56425733 -2.44973747 2.84485642 0 0 Z " fill="#D1855A" transform="translate(42,143)"/>
<path d="M0 0 C2 2 2 2 2.1953125 4.3828125 C2.17210938 5.28773437 2.14890625 6.19265625 2.125 7.125 C2.10695313 8.03507812 2.08890625 8.94515625 2.0703125 9.8828125 C2.03550781 10.93082031 2.03550781 10.93082031 2 12 C1.01 11.67 0.02 11.34 -1 11 C-1.02688151 9.35425434 -1.04634123 7.70838587 -1.0625 6.0625 C-1.07410156 5.14597656 -1.08570312 4.22945313 -1.09765625 3.28515625 C-1 1 -1 1 0 0 Z " fill="#F3F9FB" transform="translate(116,81)"/>
<path d="M0 0 C0.33 0.66 0.66 1.32 1 2 C1.66 2.33 2.32 2.66 3 3 C1.12855305 3.82065069 -0.74734336 4.6311584 -2.625 5.4375 C-3.66914062 5.88996094 -4.71328125 6.34242188 -5.7890625 6.80859375 C-8.88685251 7.95801705 -11.73210054 8.57311223 -15 9 C-11.32166885 5.99045634 -7.56904484 4.57788018 -3.14453125 2.96484375 C-0.83541191 2.197645 -0.83541191 2.197645 0 0 Z " fill="#D2E8C3" transform="translate(73,134)"/>
<path d="M0 0 C0.99 0.66 1.98 1.32 3 2 C2.38125 2.2475 1.7625 2.495 1.125 2.75 C-1.3829739 4.22527877 -1.92292949 5.34874952 -3 8 C-3.33 8.66 -3.66 9.32 -4 10 C-4.66 10 -5.32 10 -6 10 C-5.58578031 5.16743695 -3.53586014 3.17320782 0 0 Z " fill="#DA8261" transform="translate(31,129)"/>
<path d="M0 0 C0.33 0 0.66 0 1 0 C0.67 5.61 0.34 11.22 0 17 C-0.33 17 -0.66 17 -1 17 C-1.84681133 11.91913204 -2.09038099 7.15171623 -2 2 C-1.34 2 -0.68 2 0 2 C0 1.34 0 0.68 0 0 Z " fill="#2D4A67" transform="translate(123,124)"/>
<path d="M0 0 C1.98 0 3.96 0 6 0 C2.67149253 3.59478807 -0.98971331 6.22364768 -5 9 C-4.75 6.625 -4.75 6.625 -4 4 C-1.9375 2.6875 -1.9375 2.6875 0 2 C0 1.34 0 0.68 0 0 Z " fill="#E38249" transform="translate(36,118)"/>
<path d="M0 0 C0.66 0 1.32 0 2 0 C0.48328036 4.55015893 -3.16891053 6.50057264 -7 9 C-7 8.34 -7 7.68 -7 7 C-7.66 7 -8.32 7 -9 7 C-9 6.34 -9 5.68 -9 5 C-7.88625 4.54625 -6.7725 4.0925 -5.625 3.625 C-2.03800992 2.27534014 -2.03800992 2.27534014 0 0 Z " fill="#FDEEDD" transform="translate(43,97)"/>
<path d="M0 0 C0.33 0 0.66 0 1 0 C1.33 2.64 1.66 5.28 2 8 C4.64 8 7.28 8 10 8 C10 8.66 10 9.32 10 10 C6.7 10 3.4 10 0 10 C0 6.7 0 3.4 0 0 Z " fill="#405A77" transform="translate(118,83)"/>
<path d="M0 0 C0.99 1.32 1.98 2.64 3 4 C2.01 5.485 2.01 5.485 1 7 C0.01 6.34 -0.98 5.68 -2 5 C-4.15274948 5.30840599 -4.15274948 5.30840599 -6 6 C-5.25 3.5625 -5.25 3.5625 -4 1 C-1.875 0.1875 -1.875 0.1875 0 0 Z " fill="#395683" transform="translate(166,137)"/>
<path d="M0 0 C0.99 0.66 1.98 1.32 3 2 C1.02 4.31 -0.96 6.62 -3 9 C-3.99 8.67 -4.98 8.34 -6 8 C-2.25 2.25 -2.25 2.25 0 0 Z " fill="#D08154" transform="translate(33,133)"/>
<path d="M0 0 C0.75023437 0.96679688 0.75023437 0.96679688 1.515625 1.953125 C4.79043567 4.65123945 7.67878271 4.66534331 11.75 4.75 C12.44738281 4.77964844 13.14476563 4.80929688 13.86328125 4.83984375 C15.57490813 4.91018458 17.28745815 4.95739946 19 5 C19 5.33 19 5.66 19 6 C16.60425039 6.30436567 14.21455175 6.56894313 11.8125 6.8125 C11.13896484 6.90208984 10.46542969 6.99167969 9.77148438 7.08398438 C7.76953125 7.26953125 7.76953125 7.26953125 4 7 C1.01171875 4.51171875 1.01171875 4.51171875 -1 2 C-0.67 1.34 -0.34 0.68 0 0 Z " fill="#B5C4D7" transform="translate(59,88)"/>
<path d="M0 0 C1.98 0.66 3.96 1.32 6 2 C6 2.66 6 3.32 6 4 C6.66 4 7.32 4 8 4 C7.67 5.32 7.34 6.64 7 8 C3.83282717 6.41641358 2.26731682 5.54736301 0.6875 2.3125 C0.460625 1.549375 0.23375 0.78625 0 0 Z " fill="#E3E2E3" transform="translate(173,149)"/>
<path d="M0 0 C0.66 0 1.32 0 2 0 C3.18681726 3.56045177 3.09689832 6.43808337 3.0625 10.1875 C3.05347656 11.45980469 3.04445313 12.73210937 3.03515625 14.04296875 C3.02355469 15.01878906 3.01195313 15.99460938 3 17 C3.66 17.33 4.32 17.66 5 18 C4.01 18 3.02 18 2 18 C2 13.38 2 8.76 2 4 C0.68 3.67 -0.64 3.34 -2 3 C-1.34 2.01 -0.68 1.02 0 0 Z " fill="#C5DBBA" transform="translate(85,128)"/>
<path d="M0 0 C2.97 0.495 2.97 0.495 6 1 C3.87330165 3.33936818 1.93775144 4.80653848 -1 6 C-1.99 6 -2.98 6 -4 6 C-4 5.01 -4 4.02 -4 3 C-3.01 3 -2.02 3 -1 3 C-0.67 2.01 -0.34 1.02 0 0 Z " fill="#314969" transform="translate(92,139)"/>
<path d="M0 0 C2.31 0.33 4.62 0.66 7 1 C6.01 2.32 5.02 3.64 4 5 C2.35 4.67 0.7 4.34 -1 4 C-0.67 2.68 -0.34 1.36 0 0 Z " fill="#34517E" transform="translate(76,127)"/>
<path d="M0 0 C0.99 0 1.98 0 3 0 C3.29296875 5.95703125 3.29296875 5.95703125 3 8 C2.01 8.99 1.02 9.98 0 11 C0 7.37 0 3.74 0 0 Z " fill="#EFF9FB" transform="translate(161,113)"/>
<path d="M0 0 C0 2.97 0 5.94 0 9 C-0.33 9 -0.66 9 -1 9 C-1.33 6.69 -1.66 4.38 -2 2 C-2.99 2.99 -3.98 3.98 -5 5 C-5.66 4.67 -6.32 4.34 -7 4 C-6.625 2.0625 -6.625 2.0625 -6 0 C-4 -1 -4 -1 0 0 Z " fill="#FEF2E2" transform="translate(56,90)"/>
<path d="M0 0 C0.99 0.33 1.98 0.66 3 1 C3 2.98 3 4.96 3 7 C1.02 7.99 1.02 7.99 -1 9 C-1.09765625 2.84765625 -1.09765625 2.84765625 -1 1 C-0.67 0.67 -0.34 0.34 0 0 Z " fill="#E7EFF6" transform="translate(91,85)"/>
<path d="M0 0 C1.32 0 2.64 0 4 0 C4 3.96 4 7.92 4 12 C3.67 12 3.34 12 3 12 C2.67 9.03 2.34 6.06 2 3 C-0.31 3.33 -2.62 3.66 -5 4 C-4.34 3.34 -3.68 2.68 -3 2 C-2.01 2 -1.02 2 0 2 C0 1.34 0 0.68 0 0 Z " fill="#ADC76A" transform="translate(83,132)"/>
<path d="M0 0 C2.97 0 5.94 0 9 0 C8.67 0.99 8.34 1.98 8 3 C7.67 2.67 7.34 2.34 7 2 C6.01 2.99 5.02 3.98 4 5 C2.64567325 3.68799596 1.31266518 2.35368596 0 1 C0 0.67 0 0.34 0 0 Z " fill="#2D4673" transform="translate(116,117)"/>
<path d="M0 0 C1.65 0 3.3 0 5 0 C5 1.98 5 3.96 5 6 C3.33333333 6 1.66666667 6 0 6 C0 4.02 0 2.04 0 0 Z " fill="#5F5E65" transform="translate(145,152)"/>
<path d="M0 0 C0.99 0 1.98 0 3 0 C3 0.99 3 1.98 3 3 C0.0173094 4.52448631 -2.818202 5.93940067 -6 7 C-5.67 5.68 -5.34 4.36 -5 3 C-4.360625 2.87625 -3.72125 2.7525 -3.0625 2.625 C-2.0415625 2.315625 -2.0415625 2.315625 -1 2 C-0.67 1.34 -0.34 0.68 0 0 Z " fill="#CEB8B0" transform="translate(55,122)"/>
<path d="M0 0 C2.0625 0.4375 2.0625 0.4375 4 1 C4 2.65 4 4.3 4 6 C2.35 6 0.7 6 -1 6 C-1.042721 4.33388095 -1.04063832 2.66617115 -1 1 C-0.67 0.67 -0.34 0.34 0 0 Z " fill="#E97B29" transform="translate(24,119)"/>
<path d="M0 0 C1.65 1.32 3.3 2.64 5 4 C4.67 4.33 4.34 4.66 4 5 C3.95936168 6.66617115 3.957279 8.33388095 4 10 C3.67 9.01 3.34 8.02 3 7 C1.68352881 6.30062468 0.34977849 5.63270867 -1 5 C-1.33 4.34 -1.66 3.68 -2 3 C-1.34 2.67 -0.68 2.34 0 2 C0 1.34 0 0.68 0 0 Z " fill="#3B577E" transform="translate(150,97)"/>
<path d="M0 0 C2 1 2 1 3.125 4.0625 C3.41375 5.031875 3.7025 6.00125 4 7 C1.69 7 -0.62 7 -3 7 C-2.01 4.69 -1.02 2.38 0 0 Z " fill="#5F5F62" transform="translate(108,152)"/>
<path d="M0 0 C0.66 0 1.32 0 2 0 C2.33 1.32 2.66 2.64 3 4 C3.66 4 4.32 4 5 4 C7.5867822 6.06942576 8.4409112 7.75728494 9 11 C7 11 7 11 4.875 9.125 C3 7 3 7 3 5 C2.34 5 1.68 5 1 5 C0.67 3.35 0.34 1.7 0 0 Z " fill="#FCEEDB" transform="translate(31,146)"/>
<path d="M0 0 C3.96 0 7.92 0 12 0 C12 1.65 12 3.3 12 5 C11.01 5.495 11.01 5.495 10 6 C10 5.34 10 4.68 10 4 C9.34 3.67 8.68 3.34 8 3 C8.33 2.34 8.66 1.68 9 1 C6.03 1 3.06 1 0 1 C0 0.67 0 0.34 0 0 Z " fill="#576685" transform="translate(63,117)"/>
<path d="M0 0 C0.99 0 1.98 0 3 0 C3 0.99 3 1.98 3 3 C1.02 3.33 -0.96 3.66 -3 4 C-3 4.66 -3 5.32 -3 6 C-3.99 6.33 -4.98 6.66 -6 7 C-5.67 5.68 -5.34 4.36 -5 3 C-4.360625 2.87625 -3.72125 2.7525 -3.0625 2.625 C-2.0415625 2.315625 -2.0415625 2.315625 -1 2 C-0.67 1.34 -0.34 0.68 0 0 Z " fill="#C5B2A6" transform="translate(56,117)"/>
<path d="M0 0 C1.9375 0.8125 1.9375 0.8125 4 2 C5.28317892 5.84953676 5.06643637 8.94738135 5 13 C4.67 13 4.34 13 4 13 C4 10.69 4 8.38 4 6 C3.01 6 2.02 6 1 6 C0.67 4.02 0.34 2.04 0 0 Z " fill="#D6E3ED" transform="translate(160,107)"/>
<path d="M0 0 C1.5625 1.8125 1.5625 1.8125 3 4 C2.67 4.99 2.34 5.98 2 7 C0.35 7 -1.3 7 -3 7 C-1.125 1.125 -1.125 1.125 0 0 Z " fill="#5A5B5A" transform="translate(95,152)"/>
<path d="M0 0 C2.35953094 2.35953094 2.49141413 3.77895617 3 7 C2.34 7 1.68 7 1 7 C1 7.66 1 8.32 1 9 C-0.32 9.33 -1.64 9.66 -3 10 C-2.01 6.7 -1.02 3.4 0 0 Z " fill="#40577E" transform="translate(164,120)"/>
<path d="M0 0 C5.94 0 11.88 0 18 0 C17.01 1.485 17.01 1.485 16 3 C15.01 2.67 14.02 2.34 13 2 C10.77425665 1.77548542 8.54418481 1.59217122 6.3125 1.4375 C5.13300781 1.35371094 3.95351562 1.26992187 2.73828125 1.18359375 C1.83464844 1.12300781 0.93101562 1.06242187 0 1 C0 0.67 0 0.34 0 0 Z " fill="#4B5A6E" transform="translate(166,63)"/>
<path d="M0 0 C1.98 0 3.96 0 6 0 C5.67 0.66 5.34 1.32 5 2 C1.71480525 3.09506492 -0.73663415 3.09960608 -4.1875 3.0625 C-5.81751953 3.04896484 -5.81751953 3.04896484 -7.48046875 3.03515625 C-8.31191406 3.02355469 -9.14335938 3.01195312 -10 3 C-10 2.67 -10 2.34 -10 2 C-6.7 2 -3.4 2 0 2 C0 1.34 0 0.68 0 0 Z " fill="#ACC85F" transform="translate(62,162)"/>
<path d="M0 0 C2 2 2 2 2.0625 4.5 C2.041875 5.325 2.02125 6.15 2 7 C2.33 7.66 2.66 8.32 3 9 C1.02 8.34 -0.96 7.68 -3 7 C-1.125 2.25 -1.125 2.25 0 0 Z " fill="#2F4970" transform="translate(141,119)"/>
<path d="M0 0 C0.33 0.66 0.66 1.32 1 2 C-0.98 4.31 -2.96 6.62 -5 9 C-6.32 8.67 -7.64 8.34 -9 8 C-6.03 5.36 -3.06 2.72 0 0 Z " fill="#E0885C" transform="translate(41,101)"/>
<path d="M0 0 C0.33 0.66 0.66 1.32 1 2 C1.66 2 2.32 2 3 2 C3.33 1.34 3.66 0.68 4 0 C4.33 1.65 4.66 3.3 5 5 C3.35 5.33 1.7 5.66 0 6 C0 4.02 0 2.04 0 0 Z " fill="#535259" transform="translate(86,153)"/>
<path d="M0 0 C2.31 0.66 4.62 1.32 7 2 C7 2.66 7 3.32 7 4 C6.34 4 5.68 4 5 4 C5 5.65 5 7.3 5 9 C4.67 9 4.34 9 4 9 C4 7.35 4 5.7 4 4 C3.01 4 2.02 4 1 4 C0.67 2.68 0.34 1.36 0 0 Z " fill="#8D8C8B" transform="translate(152,149)"/>
<path d="M0 0 C1.5 1.375 1.5 1.375 3 3 C3 3.66 3 4.32 3 5 C2.34 5 1.68 5 1 5 C0.67 5.99 0.34 6.98 0 8 C0 7.01 0 6.02 0 5 C-1.32 5.33 -2.64 5.66 -4 6 C-3.67 5.01 -3.34 4.02 -3 3 C-2.01 3 -1.02 3 0 3 C0 2.01 0 1.02 0 0 Z " fill="#6D6162" transform="translate(55,112)"/>
<path d="M0 0 C1.32 0 2.64 0 4 0 C4 1.98 4 3.96 4 6 C2.68 6 1.36 6 0 6 C0 4.02 0 2.04 0 0 Z " fill="#ADADAD" transform="translate(189,160)"/>
<path d="M0 0 C3.25543229 0.34879632 4.01873107 1.02133261 6.25 3.5625 C6.8275 4.366875 7.405 5.17125 8 6 C7.01 6.495 7.01 6.495 6 7 C6 6.34 6 5.68 6 5 C4.35 5.33 2.7 5.66 1 6 C0.67 4.02 0.34 2.04 0 0 Z " fill="#FEF6E4" transform="translate(20,135)"/>
<path d="M0 0 C0.99 0.99 1.98 1.98 3 3 C2.67 3.99 2.34 4.98 2 6 C1.34 5.67 0.68 5.34 0 5 C-0.33 5.99 -0.66 6.98 -1 8 C-1.66 7.67 -2.32 7.34 -3 7 C-2.67 6.01 -2.34 5.02 -2 4 C-1.34 4 -0.68 4 0 4 C0 2.68 0 1.36 0 0 Z " fill="#314970" transform="translate(156,103)"/>
<path d="M0 0 C0.99 0.33 1.98 0.66 3 1 C3.99 0.67 4.98 0.34 6 0 C6.66 0.33 7.32 0.66 8 1 C7.67 1.99 7.34 2.98 7 4 C6.01 4 5.02 4 4 4 C3.67 4.66 3.34 5.32 3 6 C3 5.01 3 4.02 3 3 C2.01 2.67 1.02 2.34 0 2 C0 1.34 0 0.68 0 0 Z " fill="#335586" transform="translate(116,67)"/>
<path d="M0 0 C1.65 0 3.3 0 5 0 C5 1.65 5 3.3 5 5 C3.33333333 5 1.66666667 5 0 5 C0 3.35 0 1.7 0 0 Z " fill="#8D8D8D" transform="translate(100,162)"/>
<path d="M0 0 C1.32 0.33 2.64 0.66 4 1 C3.6875 2.9375 3.6875 2.9375 3 5 C2.01 5.33 1.02 5.66 0 6 C0 4.02 0 2.04 0 0 Z " fill="#9E9E9E" transform="translate(120,161)"/>
<path d="M0 0 C0.33 0 0.66 0 1 0 C1.33 2.64 1.66 5.28 2 8 C0.68 8 -0.64 8 -2 8 C-2 6.02 -2 4.04 -2 2 C-1.34 2 -0.68 2 0 2 C0 1.34 0 0.68 0 0 Z " fill="#EFEFEF" transform="translate(184,151)"/>
<path d="M0 0 C0.33 0.66 0.66 1.32 1 2 C-0.59617578 5.83082186 -1.49984971 7.66656647 -5 10 C-4.34 7.69 -3.68 5.38 -3 3 C-2.34 3 -1.68 3 -1 3 C-0.67 2.01 -0.34 1.02 0 0 Z " fill="#ABC465" transform="translate(85,144)"/>
<path d="M0 0 C0 0.33 0 0.66 0 1 C-1.65 1 -3.3 1 -5 1 C-5 1.66 -5 2.32 -5 3 C-4.34 3 -3.68 3 -3 3 C-2.67 3.99 -2.34 4.98 -2 6 C-4.4375 5.1875 -4.4375 5.1875 -7 4 C-7.33 3.01 -7.66 2.02 -8 1 C-5.29120665 -0.35439668 -2.99066732 -0.06501451 0 0 Z " fill="#ACCD5A" transform="translate(82,136)"/>
<path d="M0 0 C4.67692308 1.47692308 4.67692308 1.47692308 6.3125 4.125 C6.539375 4.74375 6.76625 5.3625 7 6 C4.69 5.67 2.38 5.34 0 5 C0 3.35 0 1.7 0 0 Z " fill="#314C6C" transform="translate(100,99)"/>
<path d="M0 0 C1.32 0.33 2.64 0.66 4 1 C4 2.65 4 4.3 4 6 C2.68 6 1.36 6 0 6 C0 4.02 0 2.04 0 0 Z " fill="#A6A6A6" transform="translate(93,161)"/>
<path d="M0 0 C0.33 1.32 0.66 2.64 1 4 C-2 5 -2 5 -5 4 C-4.67 3.01 -4.34 2.02 -4 1 C-1.9375 0.3125 -1.9375 0.3125 0 0 Z " fill="#F1F2F0" transform="translate(104,158)"/>
<path d="M0 0 C0.66 0 1.32 0 2 0 C1.43628586 3.26954202 0.50037734 4.82575883 -2 7 C-2.33 6.01 -2.66 5.02 -3 4 C-1.6875 1.8125 -1.6875 1.8125 0 0 Z " fill="#C78860" transform="translate(42,150)"/>
<path d="M0 0 C1.485 0.99 1.485 0.99 3 2 C2.67 3.65 2.34 5.3 2 7 C1.34 7 0.68 7 0 7 C-1.125 2.25 -1.125 2.25 0 0 Z " fill="#D7DACD" transform="translate(87,148)"/>
<path d="M0 0 C0.99 0.33 1.98 0.66 3 1 C4.56118428 1.06740865 6.1250252 1.08514456 7.6875 1.0625 C8.49574219 1.05347656 9.30398437 1.04445312 10.13671875 1.03515625 C10.75160156 1.02355469 11.36648437 1.01195312 12 1 C11.67 1.66 11.34 2.32 11 3 C9.20866022 3.05391993 7.41686101 3.09275571 5.625 3.125 C4.62726563 3.14820313 3.62953125 3.17140625 2.6015625 3.1953125 C0 3 0 3 -2 1 C-1.34 0.67 -0.68 0.34 0 0 Z " fill="#2F4266" transform="translate(155,142)"/>
<path d="M0 0 C2 2 2 2 2.125 4.625 C2.08375 5.40875 2.0425 6.1925 2 7 C0.68 7.33 -0.64 7.66 -2 8 C-1.125 1.125 -1.125 1.125 0 0 Z " fill="#415977" transform="translate(123,118)"/>
<path d="M0 0 C0.33 0 0.66 0 1 0 C1.25 6.625 1.25 6.625 -1 10 C-1.66 9.67 -2.32 9.34 -3 9 C-3 7 -3 7 -2 4 C-1.34 4 -0.68 4 0 4 C0 2.68 0 1.36 0 0 Z " fill="#364B68" transform="translate(196,68)"/>
<path d="M0 0 C1.65 1.65 3.3 3.3 5 5 C4.67 5.99 4.34 6.98 4 8 C3.01 7.67 2.02 7.34 1 7 C0 4 0 4 0 0 Z " fill="#314B69" transform="translate(108,71)"/>
<path d="M0 0 C1.32 0 2.64 0 4 0 C4.33 1.65 4.66 3.3 5 5 C4.01 5 3.02 5 2 5 C1.67 5.66 1.34 6.32 1 7 C1 5.68 1 4.36 1 3 C0.67 2.01 0.34 1.02 0 0 Z " fill="#9D9D9D" transform="translate(165,161)"/>
<path d="M0 0 C1.98 0.495 1.98 0.495 4 1 C3.34 2.32 2.68 3.64 2 5 C1.01 4.67 0.02 4.34 -1 4 C-0.67 2.68 -0.34 1.36 0 0 Z " fill="#B9B9B9" transform="translate(137,162)"/>
<path d="M0 0 C-2.64 1.65 -5.28 3.3 -8 5 C-8.66 4.34 -9.32 3.68 -10 3 C-3.375 -1.125 -3.375 -1.125 0 0 Z " fill="#D6EB93" transform="translate(62,152)"/>
<path d="M0 0 C0.33 0.66 0.66 1.32 1 2 C1.66 2.33 2.32 2.66 3 3 C0.82575883 5.50037734 -0.73045798 6.43628586 -4 7 C-2.68 4.69 -1.36 2.38 0 0 Z " fill="#D9E7F0" transform="translate(112,97)"/>
<path d="M0 0 C0.33 0 0.66 0 1 0 C1 2.64 1 5.28 1 8 C0.01 7.67 -0.98 7.34 -2 7 C-1.125 2.25 -1.125 2.25 0 0 Z " fill="#2F4B6C" transform="translate(78,80)"/>
<path d="M0 0 C0.66 0 1.32 0 2 0 C2 2.97 2 5.94 2 9 C1.01 9.33 0.02 9.66 -1 10 C-0.67 6.7 -0.34 3.4 0 0 Z " fill="#D4E7F2" transform="translate(80,77)"/>
<path d="M0 0 C0.99 0 1.98 0 3 0 C2.67 1.98 2.34 3.96 2 6 C1.01 6 0.02 6 -1 6 C-1.042721 4.33388095 -1.04063832 2.66617115 -1 1 C-0.67 0.67 -0.34 0.34 0 0 Z " fill="#A0A0A0" transform="translate(115,161)"/>
<path d="M0 0 C0.66 0 1.32 0 2 0 C3.625 2.5 3.625 2.5 5 5 C2.03 4.505 2.03 4.505 -1 4 C-0.67 2.68 -0.34 1.36 0 0 Z " fill="#3D566C" transform="translate(122,141)"/>
<path d="M0 0 C0.33 1.32 0.66 2.64 1 4 C-0.98 4.99 -0.98 4.99 -3 6 C-3.33 4.68 -3.66 3.36 -4 2 C-2.68 1.34 -1.36 0.68 0 0 Z " fill="#C5CBDD" transform="translate(56,132)"/>
<path d="M0 0 C1.125 1.6875 1.125 1.6875 2 4 C1.125 6.75 1.125 6.75 0 9 C-0.66 8.67 -1.32 8.34 -2 8 C-1.67 6.68 -1.34 5.36 -1 4 C-1.66 3.67 -2.32 3.34 -3 3 C-2.01 2.01 -1.02 1.02 0 0 Z " fill="#465C82" transform="translate(89,122)"/>
<path d="M0 0 C2 1 2 1 2.75 2.875 C3 5 3 5 1 8 C0.01 7.67 -0.98 7.34 -2 7 C-1.34 6.67 -0.68 6.34 0 6 C0 4.02 0 2.04 0 0 Z " fill="#375287" transform="translate(93,117)"/>
<path d="M0 0 C3.96 0.33 7.92 0.66 12 1 C12 1.33 12 1.66 12 2 C6.06 2.495 6.06 2.495 0 3 C0 2.01 0 1.02 0 0 Z " fill="#334666" transform="translate(60,117)"/>
</svg>
